<svg xmlns="http://www.w3.org/2000/svg" width="51" height="48.614" viewBox="0 0 51 48.614"><g transform="translate(14527 9505.625)"><g transform="translate(-4)"><g transform="translate(-14507 -9488)" fill="#2bd4cf" stroke="#881301" stroke-width="2"><circle cx="9.5" cy="9.5" r="9.5" stroke="none"/><circle cx="9.5" cy="9.5" r="8.5" fill="none"/></g><g transform="translate(-14519 -9500)" fill="none" stroke="#881301" stroke-width="2"><ellipse cx="21.5" cy="21.495" rx="21.5" ry="21.495" stroke="none"/><ellipse cx="21.5" cy="21.495" rx="20.5" ry="20.495" fill="none"/></g></g><g transform="translate(-14509 -9505.625)" fill="#ffd664" stroke="#881301" stroke-width="2"><ellipse cx="7.5" cy="7.5" rx="7.5" ry="7.5" stroke="none"/><ellipse cx="7.5" cy="7.5" rx="6.5" ry="6.5" fill="none"/></g><g transform="translate(1 -1)"><g transform="translate(-14528 -9474)" fill="#f97c22" stroke="#881301" stroke-width="2"><ellipse cx="7.5" cy="7.5" rx="7.5" ry="7.5" stroke="none"/><ellipse cx="7.5" cy="7.5" rx="6.5" ry="6.5" fill="none"/></g><g transform="translate(-14492 -9474)" fill="#fb9196"><path d="M 7.5 13.99999809265137 C 3.915889978408813 13.99999809265137 1 11.08410835266113 1 7.499998092651367 C 1 3.915888071060181 3.915889978408813 0.9999980926513672 7.5 0.9999980926513672 C 11.08411026000977 0.9999980926513672 14 3.915888071060181 14 7.499998092651367 C 14 11.08410835266113 11.08411026000977 13.99999809265137 7.5 13.99999809265137 Z" stroke="none"/><path d="M 7.5 1.999998092651367 C 4.467289924621582 1.999998092651367 2 4.467288017272949 2 7.499998092651367 C 2 10.53270816802979 4.467289924621582 12.99999809265137 7.5 12.99999809265137 C 10.53271007537842 12.99999809265137 13 10.53270816802979 13 7.499998092651367 C 13 4.467288017272949 10.53271007537842 1.999998092651367 7.5 1.999998092651367 M 7.5 -1.9073486328125e-06 C 11.64213943481445 -1.9073486328125e-06 15 3.357868194580078 15 7.499998092651367 C 15 11.64212799072266 11.64213943481445 14.99999809265137 7.5 14.99999809265137 C 3.35785961151123 14.99999809265137 0 11.64212799072266 0 7.499998092651367 C 0 3.357868194580078 3.35785961151123 -1.9073486328125e-06 7.5 -1.9073486328125e-06 Z" stroke="none" fill="#881301"/></g></g></g></svg>