<?xml version="1.0" encoding="UTF-8" standalone="no"?><!DOCTYPE svg PUBLIC "-//W3C//DTD SVG 1.1//EN" "http://www.w3.org/Graphics/SVG/1.1/DTD/svg11.dtd"><svg width="100%" height="100%" viewBox="0 0 21 23" version="1.1" xmlns="http://www.w3.org/2000/svg" xmlns:xlink="http://www.w3.org/1999/xlink" xml:space="preserve" xmlns:serif="http://www.serif.com/" style="fill-rule:evenodd;clip-rule:evenodd;stroke-linecap:round;stroke-linejoin:round;stroke-miterlimit:10;"><g id="Group_4939"><path id="Path_4339" d="M13.538,11.932c-0.001,0.001 -0.002,0.003 -0.003,0.004c-0.775,0.774 -2.049,0.774 -2.824,0c-0.001,-0.001 -0.002,-0.003 -0.003,-0.004l-1.772,-1.771c0,-0.001 0,-0.001 0,-0.001c-0.777,-0.776 -0.777,-2.054 0,-2.83c0,0 0.001,-0.001 0.002,-0.002l1.958,-1.958l-4.309,-4.309l-1.458,1.458c-2.225,2.235 -2.224,5.904 0.002,8.139l5.091,5.091c2.23,2.229 5.898,2.231 8.131,0.006l1.46,-1.46l-4.309,-4.309l-1.959,1.958l-0.007,-0.012Z" style="fill:none;stroke:#000;stroke-width:1.5px;"/><path id="Path_4340" d="M14.232,17.849c0,2.068 -1.702,3.77 -3.771,3.77" style="fill:none;stroke:#000;stroke-width:1.5px;stroke-linejoin:miter;stroke-miterlimit:4;"/></g></svg>