<svg xmlns="http://www.w3.org/2000/svg" width="47" height="47" viewBox="0 0 47 47">
  <g id="Group_5571" data-name="Group 5571" transform="translate(16485 15206)">
    <g id="Group_5570" data-name="Group 5570" transform="translate(692 -3888)">
      <g id="Group_4938" data-name="Group 4938" transform="translate(-2743 -1814.375)">
        <g id="Group_4100" data-name="Group 4100" transform="translate(-14700 -10083.615)">
          <g id="Group_3890" data-name="Group 3890" transform="translate(266 579.99)">
            <g id="Group_3876" data-name="Group 3876" transform="translate(0 0)">
              <g id="Ellipse_1560" data-name="Ellipse 1560" transform="translate(0)" fill="none" stroke="#881301" stroke-width="2">
                <circle cx="23.5" cy="23.5" r="23.5" stroke="none"/>
                <circle cx="23.5" cy="23.5" r="22.5" fill="none"/>
              </g>
            </g>
          </g>
        </g>
      </g>
      <g id="Group_4939" data-name="Group 4939" transform="translate(-17166.99 -11307)">
        <path id="Path_4339" data-name="Path 4339" d="M6.724,16.8a2.662,2.662,0,0,1-2.668-2.668l0-3.341A2.668,2.668,0,0,1,6.728,8.122l3.693,0,0-8.125H7.672A7.69,7.69,0,0,0,0,7.672l0,9.6A7.672,7.672,0,0,0,7.66,24.943h2.753l0-8.125-3.693,0Z" transform="translate(0 7.376) rotate(-45)" fill="#fb9196" stroke="#881301" stroke-linecap="round" stroke-linejoin="round" stroke-miterlimit="10" stroke-width="2"/>
        <path id="Path_4340" data-name="Path 4340" d="M15.027,10A5.027,5.027,0,0,1,10,15.027" transform="translate(2.532 12.389)" fill="none" stroke="#881301" stroke-linecap="round" stroke-width="2"/>
      </g>
    </g>
  </g>
</svg>
