<?xml version="1.0" encoding="UTF-8" standalone="no"?>
<!DOCTYPE svg PUBLIC "-//W3C//DTD SVG 1.1//EN" "http://www.w3.org/Graphics/SVG/1.1/DTD/svg11.dtd">
<svg width="100%" height="100%" viewBox="0 0 51 51" version="1.1" xmlns="http://www.w3.org/2000/svg" xmlns:xlink="http://www.w3.org/1999/xlink" xml:space="preserve" xmlns:serif="http://www.serif.com/" style="fill-rule:evenodd;clip-rule:evenodd;stroke-linejoin:round;stroke-miterlimit:2;">
    <g id="Group_5634" transform="matrix(1,0,0,1,15033.7,22264)">
        <g id="Group_5529" transform="matrix(1,0,0,1,-15033.7,-22264)">
            <path id="Path_4652" d="M25.5,0C39.489,0 51,11.511 51,25.5C51,39.489 39.489,51 25.5,51C11.511,51 0,39.489 0,25.5C0,11.511 11.511,0 25.5,0Z" style="fill:rgb(143,124,118);fill-rule:nonzero;"/>
        </g>
        <g transform="matrix(1,0,0,1,-16296.9,-22860.7)">
            <g id="Group_5530">
                <path id="Path_4376" d="M1277.79,618.078C1277.79,618.078 1284.08,618.694 1285.54,615.355C1286.99,612.016 1286.8,610.58 1286.8,610.58C1286.8,610.58 1286.09,607.555 1287.03,607.371C1287.36,607.286 1287.7,607.243 1288.03,607.243C1290.2,607.243 1291.98,609.026 1291.98,611.194C1291.98,611.353 1291.97,611.513 1291.95,611.671C1291.77,613.668 1291.3,615.628 1290.56,617.488L1298.62,616.814C1298.62,616.814 1300.94,616.672 1300.98,618.429C1301.03,620.186 1299.08,628.594 1299.08,628.594C1299.08,628.594 1298.44,631.277 1296.65,632.094C1294.86,632.911 1290.08,632.57 1285.54,632.094C1282.93,631.833 1280.34,631.381 1277.79,630.741L1277.79,618.078Z" style="fill:rgb(240,240,237);fill-rule:nonzero;"/>
            </g>
        </g>
    </g>
</svg>
