<?xml version="1.0" encoding="UTF-8" standalone="no"?>
<!DOCTYPE svg PUBLIC "-//W3C//DTD SVG 1.1//EN" "http://www.w3.org/Graphics/SVG/1.1/DTD/svg11.dtd">
<svg width="100%" height="100%" viewBox="0 0 51 51" version="1.1" xmlns="http://www.w3.org/2000/svg" xmlns:xlink="http://www.w3.org/1999/xlink" xml:space="preserve" xmlns:serif="http://www.serif.com/" style="fill-rule:evenodd;clip-rule:evenodd;stroke-linejoin:round;stroke-miterlimit:2;">
    <g id="Layer_2">
        <g id="Layer_1-2">
            <g id="Group_6397">
                <g id="Group_5529-2">
                    <path id="Path_4652-2" d="M25.5,0C39.489,0 51,11.511 51,25.5C51,39.489 39.489,51 25.5,51C11.511,51 0,39.489 0,25.5C0,11.511 11.511,0 25.5,0Z" style="fill:rgb(44,178,80);fill-rule:nonzero;"/>
                </g>
                <g id="Group_5530-2">
                    <path id="Path_4376-2" d="M14.53,21.35C14.53,21.35 20.82,21.96 22.28,18.62C23.74,15.28 23.54,13.85 23.54,13.85C23.54,13.85 22.83,10.85 23.77,10.64C25.866,10.114 28.028,11.377 28.6,13.46C28.723,13.943 28.757,14.445 28.7,14.94C28.512,16.937 28.04,18.896 27.3,20.76L35.36,20.08C35.36,20.08 37.68,19.94 37.72,21.7C37.76,23.46 35.82,31.86 35.82,31.86C35.82,31.86 35.18,34.55 33.39,35.36C31.6,36.17 26.82,35.84 22.28,35.36C19.667,35.097 17.077,34.642 14.53,34L14.53,21.35Z" style="fill:white;fill-rule:nonzero;"/>
                </g>
            </g>
        </g>
    </g>
</svg>
