<?xml version="1.0" encoding="UTF-8" standalone="no"?>
<!DOCTYPE svg PUBLIC "-//W3C//DTD SVG 1.1//EN" "http://www.w3.org/Graphics/SVG/1.1/DTD/svg11.dtd">
<svg width="100%" height="100%" viewBox="0 0 51 51" version="1.1" xmlns="http://www.w3.org/2000/svg" xmlns:xlink="http://www.w3.org/1999/xlink" xml:space="preserve" xmlns:serif="http://www.serif.com/" style="fill-rule:evenodd;clip-rule:evenodd;stroke-linejoin:round;stroke-miterlimit:2;">
    <g id="Layer_2">
        <g id="Layer_1-2">
            <g id="Group_6396-2">
                <circle id="Ellipse_1756-4" cx="25.5" cy="25.5" r="25.5" style="fill:rgb(251,145,150);"/>
                <path id="ic_pan_tool_24px-2" d="M36.79,30.39L24.15,37.86C22.259,38.96 19.799,38.316 18.69,36.43L18.69,36.35L15,29.84C14.46,28.883 14.32,27.75 14.61,26.69C14.9,25.63 17,16.21 17.42,15C17.84,13.79 19.42,14.81 19.97,16.7C20.52,18.59 19.7,22.58 19.7,22.58L30.54,16.3C31.234,15.91 32.124,16.142 32.54,16.82C32.963,17.55 32.716,18.499 31.99,18.93L26.39,23.43L34.67,18.53C35.366,18.142 36.257,18.378 36.67,19.06C37.086,19.794 36.835,20.739 36.11,21.17L28.46,27L35.86,22.62C36.55,22.232 37.434,22.453 37.86,23.12L37.86,23.18C38.278,23.911 38.031,24.856 37.31,25.29L30.4,30.56L35.2,27.73C35.895,27.331 36.794,27.569 37.2,28.26C37.657,28.96 37.474,29.91 36.79,30.39Z" style="fill:white;fill-rule:nonzero;"/>
            </g>
        </g>
    </g>
</svg>
