<?xml version="1.0" encoding="UTF-8" standalone="no"?>
<!DOCTYPE svg PUBLIC "-//W3C//DTD SVG 1.1//EN" "http://www.w3.org/Graphics/SVG/1.1/DTD/svg11.dtd">
<svg width="100%" height="100%" viewBox="0 0 51 51" version="1.1" xmlns="http://www.w3.org/2000/svg" xmlns:xlink="http://www.w3.org/1999/xlink" xml:space="preserve" xmlns:serif="http://www.serif.com/" style="fill-rule:evenodd;clip-rule:evenodd;stroke-linejoin:round;stroke-miterlimit:2;">
    <circle id="Ellipse_1756" cx="25.5" cy="25.5" r="25.5" style="fill:rgb(143,124,118);"/>
    <g id="ic_pan_tool_24px" transform="matrix(0.5,0.866025,-0.866025,0.5,30.007,7.554)">
        <path d="M23.169,5.55L23.315,20.228C23.315,20.235 23.315,20.242 23.315,20.25C23.315,22.437 21.515,24.238 19.327,24.238C19.305,24.238 19.282,24.237 19.26,24.237L11.785,24.163C10.685,24.152 9.632,23.709 8.855,22.93C8.078,22.151 0.977,15.613 0.114,14.6C-0.749,13.587 0.937,12.785 2.861,13.239C4.785,13.693 7.811,16.416 7.811,16.416L7.795,3.881C7.795,3.877 7.795,3.873 7.795,3.87C7.795,3.053 8.467,2.381 9.284,2.381C9.295,2.381 9.305,2.381 9.316,2.381C10.158,2.387 10.852,3.073 10.867,3.915L11.961,11.015L11.861,1.398C11.861,1.394 11.861,1.39 11.861,1.387C11.861,0.57 12.533,-0.102 13.35,-0.102C13.361,-0.102 13.371,-0.102 13.382,-0.102C14.224,-0.096 14.918,0.59 14.933,1.432L16.053,11.059L15.967,2.459C15.967,2.449 15.967,2.439 15.967,2.429C15.967,1.612 16.639,0.94 17.456,0.94C17.468,0.94 17.48,0.94 17.492,0.94C18.334,0.946 19.028,1.632 19.043,2.474L20.153,11.088L20.1,5.52C20.1,5.516 20.1,5.512 20.1,5.509C20.1,4.692 20.772,4.02 21.589,4.02C21.6,4.02 21.61,4.02 21.621,4.02C22.461,4.027 23.152,4.71 23.169,5.55Z" style="fill:rgb(240,240,237);fill-rule:nonzero;"/>
    </g>
</svg>
