<?xml version="1.0" encoding="utf-8"?>
<!-- Generator: Adobe Illustrator 23.0.3, SVG Export Plug-In . SVG Version: 6.00 Build 0)  -->
<svg version="1.1" id="Layer_1" xmlns="http://www.w3.org/2000/svg" xmlns:xlink="http://www.w3.org/1999/xlink" x="0px" y="0px"
	 viewBox="0 0 47 47" style="enable-background:new 0 0 47 47;" xml:space="preserve">
<style type="text/css">
	.st0{fill:none;}
	.st1{fill:#881301;}
	.st2{fill:#FB9196;}
</style>
<g id="Group_5654" transform="translate(-2999 14023)">
	<g id="Group_4938" transform="translate(17433 -4519.375)">
		<g id="Group_4100" transform="translate(-14700 -10083.615)">
			<g id="Group_3890" transform="translate(266 579.99)">
				<g id="Group_3876" transform="translate(0 0)">
					<g id="Ellipse_1560" transform="translate(0)">
						<circle class="st0" cx="23.5" cy="23.5" r="23.5"/>
						<path class="st1" d="M23.5,47C10.5,47,0,36.5,0,23.5C0,10.5,10.5,0,23.5,0S47,10.5,47,23.5C47,36.5,36.5,47,23.5,47z M23.5,2
							C11.6,2,2,11.6,2,23.5S11.6,45,23.5,45C35.4,45,45,35.4,45,23.5S35.4,2,23.5,2z"/>
					</g>
				</g>
			</g>
		</g>
	</g>
	<g id="Group_5520" transform="translate(3622.606 -13969.632) rotate(-45)">
		<g>
			<path id="Path_4700_1_" class="st2" d="M-396.2-452.9c-3.1,0-5.8,1.9-6.9,4.7h-11.7l-3.8,3.8l3.8,3.8l2.3-2.3l2.3,2.3l2.3-2.3
				l2.3,2.3l2.4-2.4l0,0c1.1,2.8,3.8,4.7,6.9,4.7c4.1,0,7.4-3.3,7.4-7.4S-392.1-452.9-396.2-452.9
				C-396.2-452.9-396.2-452.9-396.2-452.9z"/>
			<path class="st1" d="M-414.8-439l-5.3-5.3l4.8-4.8l11.4,0c1.4-2.9,4.3-4.7,7.6-4.7h0c2.2,0,4.3,0.9,5.9,2.5
				c1.6,1.6,2.5,3.7,2.5,5.9c0,4.6-3.8,8.4-8.4,8.4c-3,0-5.7-1.5-7.2-4l-2.1,2.1l-2.3-2.3l-2.3,2.3l-2.3-2.3L-414.8-439z
				 M-417.2-444.3l2.4,2.4l2.3-2.3l2.3,2.3l2.3-2.3l2.3,2.3l2.4-2.4l0.9,0.9l0.1,0.2c1,2.5,3.3,4,5.9,4c3.5,0,6.4-2.9,6.4-6.4
				c0-1.7-0.7-3.3-1.9-4.5c-1.2-1.2-2.8-1.9-4.5-1.9l0-1l0,1c-2.6,0-5,1.7-6,4.1l-0.2,0.6l-12,0L-417.2-444.3z"/>
		</g>
		<circle id="Ellipse_1849" class="st1" cx="-394.3" cy="-445.5" r="2.3"/>
	</g>
</g>
</svg>
