<?xml version="1.0" encoding="UTF-8" standalone="no"?>
<!DOCTYPE svg PUBLIC "-//W3C//DTD SVG 1.1//EN" "http://www.w3.org/Graphics/SVG/1.1/DTD/svg11.dtd">
<svg width="100%" height="100%" viewBox="0 0 51 51" version="1.1" xmlns="http://www.w3.org/2000/svg" xmlns:xlink="http://www.w3.org/1999/xlink" xml:space="preserve" xmlns:serif="http://www.serif.com/" style="fill-rule:evenodd;clip-rule:evenodd;stroke-linejoin:round;stroke-miterlimit:2;">
    <g id="Layer_2">
        <g id="Layer_1-2">
            <path id="Path_4651" d="M25.5,0C39.489,0 51,11.511 51,25.5C51,39.489 39.489,51 25.5,51C11.511,51 0,39.489 0,25.5C0,11.511 11.511,0 25.5,0Z" style="fill:rgb(253,139,37);fill-rule:nonzero;"/>
            <path d="M37.67,30.58L31.81,24.72C31.423,24.335 30.787,24.335 30.4,24.72L27.86,27.26C27.807,27.292 27.759,27.332 27.72,27.38C27.053,28.046 25.957,28.046 25.29,27.38L22.87,25C22.545,24.677 22.362,24.238 22.362,23.78C22.362,23.322 22.545,22.883 22.87,22.56L25.53,19.9C25.717,19.711 25.822,19.456 25.82,19.19C25.822,18.924 25.717,18.669 25.53,18.48L19.67,12.62C19.283,12.235 18.647,12.235 18.26,12.62L16.26,14.62C12.85,18.049 12.85,23.671 16.26,27.1L23.21,34C24.472,35.27 26.097,36.118 27.86,36.43C27.695,38.315 26.102,39.782 24.21,39.79C23.387,39.79 22.71,40.467 22.71,41.29C22.71,42.113 23.387,42.79 24.21,42.79C27.742,42.784 30.69,39.978 30.87,36.45C32.693,36.166 34.378,35.307 35.68,34L37.68,32C37.867,31.811 37.972,31.556 37.97,31.29C37.969,31.023 37.861,30.767 37.67,30.58Z" style="fill:white;fill-rule:nonzero;"/>
        </g>
    </g>
</svg>
