<svg xmlns="http://www.w3.org/2000/svg" width="25.752" height="25.752" viewBox="0 0 25.752 25.752"><defs><style>.a,.e{fill:#881301;}.b{fill:#fff;stroke-linecap:round;stroke-linejoin:round;}.c{fill:none;stroke:#881301;stroke-width:2px;}.d,.e{stroke:none;}</style></defs><g transform="translate(-894.716 6881.332)"><g transform="translate(2730 -5205.342)"><g transform="translate(-1835.485 -1676)"><circle class="a" cx="1" cy="1" r="1" transform="translate(13.456 20.944)"/><g transform="translate(0 19.937) rotate(-45)"><g class="b" transform="translate(0.268 0.015)"><path class="d" d="M 26.9271183013916 7.492239952087402 L 4.743444919586182 7.492239952087402 L 1.429530620574951 4.271495819091797 L 4.747636318206787 1 L 26.9271183013916 1 L 26.9271183013916 7.492239952087402 Z"/><path class="e" d="M 5.15771484375 2 L 2.859062194824219 4.266362190246582 L 5.149332046508789 6.492239952087402 L 25.9271183013916 6.492239952087402 L 25.9271183013916 2 L 5.15771484375 2 M 4.337558746337891 0 L 27.9271183013916 0 L 27.9271183013916 8.492239952087402 L 4.337558746337891 8.492239952087402 L -1.9073486328125e-06 4.27662992477417 L 4.337558746337891 0 Z"/></g><line class="c" y2="7.106" transform="translate(21.402 0.629)"/></g><circle class="a" cx="1" cy="1" r="1" transform="translate(17.446 20.944)"/><circle class="a" cx="1" cy="1" r="1" transform="translate(21.429 20.944)"/></g></g></g></svg>