<svg xmlns="http://www.w3.org/2000/svg" viewBox="0 0 137.27 29"><defs><style>.cls-1{isolation:isolate;}.cls-2{fill:#2cb250;}.cls-3{fill:#fb9196;}.cls-4{fill:#2bd4cf;}.cls-5{fill:#f97c22;}.cls-6{fill:#2e7979;}.cls-7{fill:#ffd664;}</style></defs><g id="Layer_2" data-name="Layer 2"><g id="Layer_1-2" data-name="Layer 1"><g id="Group_5829" data-name="Group 5829"><g id="by_Bonjour" data-name="by Bonjour" class="cls-1"><g class="cls-1"><path d="M6.8,12.21a3.9,3.9,0,0,1,1.45,1.67,5.78,5.78,0,0,1,.51,2.5,5.94,5.94,0,0,1-.51,2.54,4,4,0,0,1-1.45,1.7,3.78,3.78,0,0,1-2.14.61,3.74,3.74,0,0,1-1.9-.47,3.13,3.13,0,0,1-1.22-1.35V21.1H0V7.7H1.54v5.74a3.13,3.13,0,0,1,1.22-1.35,3.65,3.65,0,0,1,1.9-.47A3.85,3.85,0,0,1,6.8,12.21ZM6.44,19a4.15,4.15,0,0,0,.74-2.64,3.92,3.92,0,0,0-.74-2.56,2.53,2.53,0,0,0-2.09-.91,2.51,2.51,0,0,0-2.08.91,4.06,4.06,0,0,0-.73,2.6A4.13,4.13,0,0,0,2.27,19,2.51,2.51,0,0,0,4.35,20,2.52,2.52,0,0,0,6.44,19Z"/><path d="M18.05,11.86h1.54L14.12,24.52H12.54L14.1,21l-3.92-9.12h1.64l3.1,7.56Z"/></g><g class="cls-1"><path d="M68.86,14.74a3.72,3.72,0,0,1,.7,2.3,3.61,3.61,0,0,1-1.37,3A6,6,0,0,1,64.4,21.1h-7V6.29h6.83a5.87,5.87,0,0,1,3.66,1,3.37,3.37,0,0,1,1.36,2.81,3.42,3.42,0,0,1-.62,2,3.55,3.55,0,0,1-1.71,1.27A3.72,3.72,0,0,1,68.86,14.74Zm-8.31-2.42h3.09a3.27,3.27,0,0,0,1.86-.43,1.52,1.52,0,0,0,.6-1.31,1.56,1.56,0,0,0-.6-1.36,3.19,3.19,0,0,0-1.86-.43H60.55Zm5.36,5.84a1.68,1.68,0,0,0,.59-1.43,1.74,1.74,0,0,0-.59-1.45A3.05,3.05,0,0,0,64,14.82H60.55V18.6H64A3.21,3.21,0,0,0,65.91,18.16Z"/><path d="M74.18,20.6a4.65,4.65,0,0,1-1.91-1.87,5.71,5.71,0,0,1-.67-2.84A5.77,5.77,0,0,1,72.27,13a4.69,4.69,0,0,1,1.91-1.86,6.71,6.71,0,0,1,5.76,0A4.69,4.69,0,0,1,81.85,13a5.77,5.77,0,0,1,.67,2.85,5.71,5.71,0,0,1-.67,2.84,4.65,4.65,0,0,1-1.91,1.87,6.61,6.61,0,0,1-5.76,0Zm5.19-4.71a3.47,3.47,0,0,0-.6-2.23,2.08,2.08,0,0,0-1.71-.73c-1.54,0-2.31,1-2.31,3s.77,3,2.31,3S79.37,17.86,79.37,15.89Z"/><path d="M94.2,11.62a5,5,0,0,1,.9,3.26V21.1H91.93V15a2.42,2.42,0,0,0-.39-1.53A1.44,1.44,0,0,0,90.33,13a2.07,2.07,0,0,0-1.58.63,2.33,2.33,0,0,0-.6,1.68V21.1H85V10.79h3.08v1.47A3.74,3.74,0,0,1,89.48,11a4.36,4.36,0,0,1,2-.44A3.37,3.37,0,0,1,94.2,11.62Z"/><path d="M101.17,20.42a5.91,5.91,0,0,1-.46,2.52,3,3,0,0,1-1.48,1.42,7.7,7.7,0,0,1-2.77.58l-1,.06-.23-2.27,1.07-.08a2,2,0,0,0,1.29-.44A1.6,1.6,0,0,0,98,21V10.79h3.17ZM97.87,5.83h3.4v3h-3.4Z"/><path d="M106.21,20.6a4.59,4.59,0,0,1-1.91-1.87,5.71,5.71,0,0,1-.68-2.84A5.78,5.78,0,0,1,104.3,13a4.63,4.63,0,0,1,1.91-1.86,6.68,6.68,0,0,1,5.75,0A4.63,4.63,0,0,1,113.87,13a5.77,5.77,0,0,1,.67,2.85,5.71,5.71,0,0,1-.67,2.84A4.59,4.59,0,0,1,112,20.6a6.59,6.59,0,0,1-5.75,0Zm5.19-4.71a3.47,3.47,0,0,0-.6-2.23,2.09,2.09,0,0,0-1.72-.73c-1.54,0-2.31,1-2.31,3s.77,3,2.31,3S111.4,17.86,111.4,15.89Z"/><path d="M126.94,10.79V21.1h-3.09V19.63a3.28,3.28,0,0,1-1.27,1.21,3.63,3.63,0,0,1-1.78.42,3.69,3.69,0,0,1-2.91-1.08,4.84,4.84,0,0,1-1-3.26V10.79h3.17V17a2,2,0,0,0,.39,1.37,1.51,1.51,0,0,0,1.19.44,2,2,0,0,0,1.5-.63,2.39,2.39,0,0,0,.57-1.66V10.79Z"/><path d="M137.27,13.14l-1.79.19a2.77,2.77,0,0,0-1.87.74,2.45,2.45,0,0,0-.54,1.65V21.1H129.9V10.79h3v1.74a3.41,3.41,0,0,1,3.21-1.95l.93-.07Z"/></g></g></g><g id="Group_3094" data-name="Group 3094"><path id="Subtraction_107" data-name="Subtraction 107" class="cls-2" d="M37,9.63A22.47,22.47,0,0,1,35.38,7a5.72,5.72,0,0,1-.73-2.35,4.63,4.63,0,1,1,9.25,0h0A5.7,5.7,0,0,1,43.18,7a22.07,22.07,0,0,1-1.6,2.64,5.27,5.27,0,0,0-1.1-.37,5.42,5.42,0,0,0-3.5.38Z"/><path id="Subtraction_110" data-name="Subtraction 110" class="cls-3" d="M39.27,29a4.61,4.61,0,0,1-4.62-4.61h0A5.72,5.72,0,0,1,35.38,22,21,21,0,0,1,37,19.38a6,6,0,0,0,1.1.38,5.71,5.71,0,0,0,2.4,0,5.3,5.3,0,0,0,1.1-.38A23,23,0,0,1,43.18,22a5.7,5.7,0,0,1,.72,2.34A4.62,4.62,0,0,1,39.29,29h0Z"/><path id="Subtraction_108" data-name="Subtraction 108" class="cls-4" d="M46.73,14.14c-.62,0-1.32,0-2.07-.08a5.41,5.41,0,0,0-1.42-3.23,6.56,6.56,0,0,0-.89-.77,23.81,23.81,0,0,1,1.49-2.71,5.75,5.75,0,0,1,1.67-1.8,4.63,4.63,0,0,1,4.62,8h0A7.19,7.19,0,0,1,46.73,14.14Z"/><path id="Subtraction_111" data-name="Subtraction 111" class="cls-5" d="M30.73,24.07h0a4.63,4.63,0,0,1-2.32-8.64,7.34,7.34,0,0,1,3.4-.57q1,0,2.1.09a5.43,5.43,0,0,0,2.29,4,23.18,23.18,0,0,1-1.5,2.72A5.75,5.75,0,0,1,33,23.45,4.67,4.67,0,0,1,30.73,24.07Z"/><path id="Subtraction_109" data-name="Subtraction 109" class="cls-6" d="M47.82,24.07a4.67,4.67,0,0,1-2.31-.62,5.86,5.86,0,0,1-1.67-1.8,23.81,23.81,0,0,1-1.49-2.71,5.39,5.39,0,0,0,2.31-4c.75-.06,1.45-.09,2.07-.09a7.19,7.19,0,0,1,3.4.57,4.63,4.63,0,0,1-2.31,8.64Z"/><path id="Subtraction_112" data-name="Subtraction 112" class="cls-7" d="M31.82,14.14a7.19,7.19,0,0,1-3.4-.57A4.62,4.62,0,1,1,32.94,5.5l.1.06a5.75,5.75,0,0,1,1.67,1.8,23.18,23.18,0,0,1,1.5,2.72,5.47,5.47,0,0,0-1.57,1.71,5.31,5.31,0,0,0-.72,2.26C33.16,14.11,32.45,14.14,31.82,14.14Z"/></g></g></g></svg>