<svg xmlns="http://www.w3.org/2000/svg" viewBox="0 0 480.04 248.39"><defs><style>.cls-1{fill:#fec7ca;}.cls-2{fill:#fb9196;}.cls-3{fill:#fee364;}.cls-4{fill:#fff8ec;}.cls-5{fill:#fff;}.cls-6{fill:#e5e5e5;}.cls-7{fill:#b5e0ff;}.cls-8{fill:#faa8b4;}.cls-9{fill:#fb7;}.cls-10{fill:#ffd664;}.cls-11{fill:#fcebd4;}.cls-12{fill:#c3c3c3;}.cls-13{fill:#7fc4f5;}.cls-14{fill:#881301;}.cls-15{fill:#f59e5d;}.cls-16{fill:#9ad700;}.cls-17{fill:#ff8b00;}</style></defs><g id="Layer_2" data-name="Layer 2"><g id="Layer_1-2" data-name="Layer 1"><path id="Subtraction_1" data-name="Subtraction 1" class="cls-1" d="M480,248.39H0a286.62,286.62,0,0,1,480,0Z"/><g id="Group_6706" data-name="Group 6706"><g id="Group_6152" data-name="Group 6152"><ellipse id="Ellipse_1989" data-name="Ellipse 1989" class="cls-2" cx="301.79" cy="203.34" rx="17.44" ry="64.05" transform="translate(47.42 463.57) rotate(-79.62)"/><path id="Path_6042" data-name="Path 6042" class="cls-3" d="M338.4,9.58l3.17,6.3L343,24l-1.71,11.2-2.08,7.28.79,4.3,9.6,7L348.47,55l-8.19,0-6.87-5.68-3.79-1.44,2.63-4.71,2.95-12.58,0-4-4.61-5.12-3.16-5.48-3.93,4.47-8.39,3.08-14.67-.5L299.21,33l2.3,12.5-4.69-.08L288.63,47l-6.23,2.68-5.53-1.86-4.2-4.65L269.93,36,276,37.93l8.37-.87,4.14-2.72,2.62-9.67,4.34-11.47,4.64-4.89,5.82-4.87,6.85-2.14,4-.27,5.06.2,5.24,1.12L332,4.4l3.16,1.65Z"/><path id="Path_6043" data-name="Path 6043" class="cls-4" d="M328,16.92l3.48,5.46,3.73,4.76-2.37,15.28L326,53l-6.76,4.69-6.54-.38-6.11-3.54-4.78-7.19-2.44-9.85.13-9.07.87-4.69,13.23.6,7.89-2L327,16.92l.44-1Z"/><path id="Path_6044" data-name="Path 6044" class="cls-5" d="M327,44.63l-6.44.84-4.08-.84-6-4.34.92,4.34,3.14,4,4.2,1,5.95-1.45,3.51-2.81Z"/><path id="Path_6045" data-name="Path 6045" class="cls-6" d="M330.55,47.79l7.07,4.52,7.88,10.1,5.43,14.28,9.59,31-15.26-4.07L328.15,88l-.83-17.4L324.84,60l-2.07-4.82L328,50.79Z"/><path id="Path_6046" data-name="Path 6046" class="cls-4" d="M325.64,62.41l-5.44,3.25-4.47.52-7.25-2.1-1.39-1.66,2.45-6.36,6.29,1.6,7.15-2Z"/><path id="Path_6047" data-name="Path 6047" class="cls-7" d="M301.71,111.57l-.92-16.2L304.1,72.6l3-10.18L311.15,65l6.05,1,5-1.13,3.46-2.46,1.68,8.2.83,17.4-4.13.36.74.69-.74.44.74-.07.46,1.62.5,1.54-.12,2.19.25,1.53.43,3.53,2.18,4.67,2,13.63-7,1.67-20.5-.65Z"/><path id="Path_6048" data-name="Path 6048" class="cls-6" d="M302.72,101.47l-.27,9.15.27,2h.9v14.45l-4-.08-3.95-.44-17.94-4.13-4.55-1.27-6.56-4.51-4.65-3.8-5-9.89L255.6,91.56l1.9-11.11,2.79-7.16,5.52-9.19,8.8-9.53,6-3.8,9.7-5.32,11.2.07,3.65,6.62,4.38,3.92L305.61,70.2M272.14,97.55l2.69,4.66,3.95,2.57,0-14.6,1.21-12.08,3.71-12.57-3.2,2.55L276.11,74l-2.5,8.79-1.85,6.34Z"/><path id="Path_6049" data-name="Path 6049" class="cls-6" d="M358.36,98.17l-13.1,5.49,5.41,6.48,5.84,4.07,4.32.88,6-1.12,3.21-2.39,6.85-10.27,5.77-14L381.2,87l-6.88-2-5-5-3.69,13.09-4.79,6.84Z"/><path id="Path_6050" data-name="Path 6050" class="cls-6" d="M345.5,101.18l-1.24,16.59-4.37,13.72-4,8.65-.64-8.65-2.05-10.56-2.68-8.6-.62-2.72L328.47,83.5Z"/><path id="Path_6051" data-name="Path 6051" class="cls-8" d="M332.14,117.76,335,130.07l1.85,16.3,4,16,4.6,10.95,5.17,7.54-7.56,6.51-4,6.12-1.92,8.12.71,9.62.21.71-2.87-2.46-6.85-9.2-6.91-13.4-5.42-15.4-3.77-15.66-2.68-18.11-1.8,7.5-4.21,15.47-5.87,10.52L293,175.83l-8.63,3.54-8.26-.52-8.17-3.12-7.27-5.63L253,160.22l-4.41-8.93,2.27-4.85,4.18-3.86,4.17-2.44,3.72-.71,3.44,3.63,6.78,7.54,4.3,2.77,2.39-.29,3.15-3.31,2.73-9,5.39.22,7.73-1.5,4.3-2.1,2-5.93L303,119.15l9.44,1.23,5.16-.48,12.9-1.77Z"/><path id="Path_6052" data-name="Path 6052" class="cls-6" d="M276,129.2l-1.47,3.57-.91,2.27,3.32,2.72,7.12,2.77,6.08.45,10.65-2.34,3.93-4.08v-4.63l-1.28-4.35-7.45-.42-3.78-.83-13.79-1.17Z"/><path id="Path_6053" data-name="Path 6053" class="cls-9" d="M266.86,143.6l1.42-3.46-.71-2.24L258.11,127l-4.44-1.45-5.67,1-5.51,3.26-2.6,3.87-3.63,13.64-1.75,8.55.77,3.85,4.68,3.56,5.11.57,4.51-2.1,2.84-2.25-3.84-8.69,2.81-5.53,5.52-3.82,5.54-2,1.15.71Z"/><path id="Path_6054" data-name="Path 6054" class="cls-9" d="M374.82,182.73l-7.52-1.36-7.45,1.36-9.52,6.73L344.77,196l-4.5,10.57.27,10-2.61-5.34-.85-7.82,2.33-10.6,6.11-8.11,9.1-5.88,7.51-2,4.17.39s3.35,1.26,3.65,1.44,2,1.31,2.45,1.68S374.82,182.73,374.82,182.73Z"/><path id="Path_6055" data-name="Path 6055" class="cls-2" d="M285.19,179s-21.49-1.45-34.33-32.57c-.91.63-2.06,3.93-2.06,3.93l1.88,5.16,5.88,9.32,6.62,7.59,11.9,6.93Z"/><path id="Path_6056" data-name="Path 6056" class="cls-2" d="M309.75,132.49s13.08,47.68,29.66,60.31c-1,3.62-1.71,6.8-1.71,6.8l.45,12.33-2.87-2.47-10.44-14.08-7.3-18.59-4.7-18.33-3.19-20.76Z"/><path id="Path_6057" data-name="Path 6057" class="cls-10" d="M300.4,22.93a5.14,5.14,0,0,0-4.37,4.2c-1,4-4.76,14.2-11.64,15s-14.17-5.34-14.17-5.34l2.46,6.38,6,5,4.73,1L293,45.51h8.53l-2.1-5.22.13-12.68Z"/><path id="Path_6058" data-name="Path 6058" class="cls-11" d="M306.63,23.43s-4,29.49,7.84,34.22c-2.31-.54-7.84-3.92-7.84-3.92L300.88,44l-1.67-13.44,1.19-7.58Z"/><path id="Path_6059" data-name="Path 6059" class="cls-12" d="M307.88,60.35a14.2,14.2,0,0,1-8.47-6.67c-3.12-5.47-3.57-8.16-3.57-8.16h5.67l5.12,8.21L310,56.08Z"/><g id="Group_6131" data-name="Group 6131"><path id="Path_6060" data-name="Path 6060" class="cls-13" d="M323.43,88.05s0-.11,0-.16c.6-8.42-.38-23.5-.38-23.5l2.58-2,3,10.18,1.46,18Z"/><path id="Path_6061" data-name="Path 6061" class="cls-13" d="M326.28,86.61l3.54,3.51,4,33.83,1.86,11.63-3.51,4.56s-1.05-11.22-3.23-18.28c-.78-2.5-5.47-24.32-5.47-33.81Z"/><path id="Path_6062" data-name="Path 6062" class="cls-2" d="M332.13,117.76l1.65,6.19,1.87,11.63-3.52,4.56s-1.05-11.22-3.23-18.28a17.57,17.57,0,0,1-.83-3.4Z"/></g><path id="Path_6063" data-name="Path 6063" class="cls-11" d="M323.07,64.39a74.93,74.93,0,0,0-2.47-7.27c-.7-1.27,2.38-1.42,2.38-1.42L325.25,60s.34,2,.4,2.37S323.07,64.39,323.07,64.39Z"/><path id="Path_6064" data-name="Path 6064" class="cls-11" d="M324.19,58c-1.17,1.39-3.62,3-8.66,3.21-4,.17-6.43-.32-7.9-.92a34.94,34.94,0,0,1,1.54-3.94l2.75,1.28h7.42l4-1.29A7.33,7.33,0,0,0,324.19,58Z"/><path id="Path_6065" data-name="Path 6065" class="cls-14" d="M318.74,50.64h-.5c-7.17-.2-8.9-7.33-8.81-11.07a1,1,0,0,1,1-1,1,1,0,0,1,.71.33c.05,0,4.72,5.2,8.47,5.54a22,22,0,0,0,8.13-1.18,1,1,0,0,1,1.28.59.94.94,0,0,1,0,.64C329,44.78,327,50.64,318.74,50.64Zm-7.06-8.41c.51,2.62,2.05,6.29,6.61,6.41,4.12.12,6.42-1.4,7.64-2.75a21.34,21.34,0,0,1-6.47.57c-2.83-.26-5.85-2.52-7.78-4.23Z"/><path id="Path_6066" data-name="Path 6066" class="cls-14" d="M328.55,36.66a1,1,0,0,1-.73-.33l-2.4-2.64a1,1,0,0,1,.07-1.41,1,1,0,0,1,.82-.25l4,.63a1,1,0,0,1,.75,1.2,1,1,0,0,1-1.06.77h0l-1.19-.18.5.54a1,1,0,0,1-.08,1.41,1,1,0,0,1-.66.26Z"/><path id="Path_6067" data-name="Path 6067" class="cls-14" d="M313,34.87a1,1,0,0,1-.53-1.85h0l.1-.06h-1.23a1,1,0,1,1,0-2h0L316,31a1,1,0,0,1,.52,1.84l-3,1.89A1.06,1.06,0,0,1,313,34.87Z"/><path id="Path_6068" data-name="Path 6068" class="cls-14" d="M331.77,31.51a1,1,0,0,1-.84-.46S329,28.21,326,28.13a1,1,0,0,1-1-1h0a1,1,0,0,1,1-1c4.1.1,6.46,3.68,6.55,3.83a1,1,0,0,1-.83,1.54Z"/><path id="Path_6069" data-name="Path 6069" class="cls-14" d="M308.14,30.07a1,1,0,0,1-.33-.06,1,1,0,0,1-.62-1.26h0c.12-.36,1.41-3.5,8.51-3.58a1,1,0,0,1,1,1,1,1,0,0,1-1,1h0c-5.65.06-6.64,2.21-6.65,2.23A1,1,0,0,1,308.14,30.07Z"/><path id="Path_6070" data-name="Path 6070" class="cls-14" d="M336.85,28.87a1,1,0,0,1-.59-.2,34.81,34.81,0,0,1-4.6-4.23,38.85,38.85,0,0,1-4.36-6.5c-1.74,2.39-6,6.51-14.33,6.6A115,115,0,0,1,300.52,24a1,1,0,0,1,.22-2h0a108.06,108.06,0,0,0,12.2.55c9.06-.09,12.63-5.46,13.37-6.78a1,1,0,0,1,1-.89h.08a1,1,0,0,1,.83.46.94.94,0,0,1,.16.42,43,43,0,0,0,4.74,7.34,33.92,33.92,0,0,0,4.32,4,1,1,0,0,1,.2,1.4,1,1,0,0,1-.79.4Z"/><path id="Path_6071" data-name="Path 6071" class="cls-14" d="M345.6,56.23a24,24,0,0,1-5.84-.82A1,1,0,0,1,339,54.2h0a1,1,0,0,1,1.21-.72,17.26,17.26,0,0,0,7.66.53,32.47,32.47,0,0,1-8.13-6c-2.7-2.89-1.51-6.56-.13-10.82a41.23,41.23,0,0,0,2.26-9.93c.44-6-.28-20.32-16.5-24.38C310.87-.75,299.48,7.37,296,14.3a52.22,52.22,0,0,0-4.7,14.2c-.57,2.83-1,4.88-2.29,6.48-4.79,5.85-14.21,3.69-17.93,2.53.57,3.31,2.81,10.8,11.43,10.42a1,1,0,0,1,.21,2h-.13c-12.8.56-13.68-13.69-13.69-13.83a1,1,0,0,1,.95-1.05.83.83,0,0,1,.41.07c.12,0,12.2,4.71,17.2-1.41,1-1.21,1.37-3.05,1.88-5.61a54.06,54.06,0,0,1,4.87-14.7C298,5.88,310.28-2.95,325.89,1c6.93,1.74,12,5.41,15,10.93a28.35,28.35,0,0,1,3,15.54,43.19,43.19,0,0,1-2.35,10.4c-1.45,4.47-2.13,6.9-.31,8.84a33.46,33.46,0,0,0,9.5,6.51,1,1,0,0,1,.51,1.32,1,1,0,0,1-.26.36C350.76,55.05,349.22,56.23,345.6,56.23Z"/><path id="Path_6072" data-name="Path 6072" class="cls-14" d="M278.78,105.78a1,1,0,0,1-1-.94A177.89,177.89,0,0,1,278,85.11,63.89,63.89,0,0,1,283.49,64a1,1,0,0,1,1.33-.46h0a1,1,0,0,1,.47,1.33A62.9,62.9,0,0,0,280,85.23a178.5,178.5,0,0,0-.19,19.49,1,1,0,0,1-.94,1.06Z"/><path id="Path_6073" data-name="Path 6073" class="cls-14" d="M303.62,127a1,1,0,0,1-1-.81c-3-15.85,2.21-65.33,5.63-70.35a1.75,1.75,0,0,1,1.08-.8,1,1,0,0,1,1.17.8h0a1,1,0,0,1-.59,1.1c-1.17,1.42-3.33,13-4.86,29.48-1.26,13.65-2,31.17-.47,39.4a1,1,0,0,1-.79,1.16h0A.62.62,0,0,1,303.62,127Z"/><path id="Path_6074" data-name="Path 6074" class="cls-14" d="M289.33,142.08a24.34,24.34,0,0,1-11.24-2.56c-3.81-2-5.08-3-5.4-4.06a2.56,2.56,0,0,1,.45-2.09,5.41,5.41,0,0,0,.45-.94,20.47,20.47,0,0,1,.89-2,21.43,21.43,0,0,0,2.27-7.4,1,1,0,0,1,1.14-.84h0a1,1,0,0,1,.84,1.14h0a23.44,23.44,0,0,1-2.47,8,18.6,18.6,0,0,0-.8,1.76,8.17,8.17,0,0,1-.59,1.23,3,3,0,0,0-.27.57c.09.27.93,1,4.42,2.84,6.8,3.57,16.24,2.58,21.68-.17,3.32-1.68,2.67-6,2.19-9.11a16.71,16.71,0,0,1-.27-2.44,1,1,0,0,1,1-1h0a1,1,0,0,1,1,1h0a15.42,15.42,0,0,0,.25,2.14c.5,3.31,1.34,8.86-3.26,11.19A28.18,28.18,0,0,1,289.33,142.08Z"/><path id="Path_6075" data-name="Path 6075" class="cls-14" d="M360.7,100.93a2.7,2.7,0,0,1-1.18-.29c-2.82-1.38-4.93-7.78-6.8-14.5l-.13-.44a156.86,156.86,0,0,0-7.48-21.27c-5-11.94-14.81-15.67-14.91-15.7a1,1,0,0,1,.69-1.88h0c.43.16,10.67,4,16.06,16.8a160.44,160.44,0,0,1,7.57,21.51l.12.45c.83,3,3.35,12.06,5.76,13.24a.55.55,0,0,0,.5,0c.31-.13,2.05-1.28,5.2-11.24,1.69-5.36,2.95-10.6,3-10.66a1,1,0,0,1,1.94.47h0c-.86,3.6-5.36,21.65-9.35,23.28A2.56,2.56,0,0,1,360.7,100.93Z"/><path id="Path_6076" data-name="Path 6076" class="cls-14" d="M350.33,181.3a1,1,0,0,1-.74-.32c-11.24-12.29-14.56-39.57-14.69-40.72a1,1,0,0,1,.87-1.11h0a1,1,0,0,1,1.11.87h0c0,.28,3.38,27.8,14.18,39.6a1,1,0,0,1-.73,1.68Z"/><path id="Path_6077" data-name="Path 6077" class="cls-14" d="M281.31,180.37c-9.34,0-18-4.71-25.1-13.73a59.1,59.1,0,0,1-8.56-15,.86.86,0,0,1-.05-.45c0-.2.64-4.93,6.23-9,4.95-3.57,8.9-3.71,9.06-3.71a1,1,0,0,1,.8.36c.08.1,8.63,10.48,12.53,13.19a3,3,0,0,0,3,.58c3.19-1.36,5-9.11,5.5-12a1,1,0,0,1,2,.31c-.18,1.16-1.91,11.46-6.68,13.51a4.92,4.92,0,0,1-4.94-.78c-3.71-2.58-10.92-11.14-12.59-13.15a17.21,17.21,0,0,0-7.48,3.29c-4.25,3.07-5.2,6.48-5.39,7.37,1.09,2.79,11.85,28.88,33.84,27.08,23-1.88,24.8-44.92,24.81-45.36a1,1,0,0,1,1.09-.9,1,1,0,0,1,.91,1,102.51,102.51,0,0,1-3.84,22.67c-4.59,15.26-12.48,23.77-22.8,24.61C282.85,180.33,282.08,180.37,281.31,180.37Z"/><path id="Path_6078" data-name="Path 6078" class="cls-14" d="M337.62,212.93a1,1,0,0,1-.7-.29c-25.52-25.29-28.62-79.1-28.65-79.64a1,1,0,0,1,1-1h0a1,1,0,0,1,1,.94,190.36,190.36,0,0,0,4.59,29.85c3.52,15,10.46,35.57,23.48,48.47a1,1,0,0,1,0,1.41h0A1,1,0,0,1,337.62,212.93Z"/><path id="Path_6079" data-name="Path 6079" class="cls-14" d="M312.13,120.81a59.76,59.76,0,0,1-9.35-.67A1,1,0,0,1,302,119h0a1,1,0,0,1,1.14-.83h0c12.42,2,28.66-1.34,28.83-1.38a1,1,0,0,1,1.18.77h0a1,1,0,0,1-.77,1.18A110.67,110.67,0,0,1,312.13,120.81Z"/><path id="Path_6080" data-name="Path 6080" class="cls-14" d="M315.73,58.65c-.43,0-.85,0-1.28-.06-10.36-1-17.55-14.43-16-29.92a43.44,43.44,0,0,1,1-6,1,1,0,0,1,1.16-.8,1,1,0,0,1,.81,1.16l0,.12a39.23,39.23,0,0,0-1,5.7c-1.41,14.39,5,26.83,14.25,27.74,4.4.43,8.84-1.82,12.48-6.34S333.31,39.2,334,32.16a39.33,39.33,0,0,0,.16-5.64,1,1,0,1,1,2-.08,41.64,41.64,0,0,1-.17,5.91c-.72,7.43-3.32,14.24-7.3,19.17C325,56.16,320.39,58.65,315.73,58.65Z"/><g id="Group_6132" data-name="Group 6132"><ellipse id="Ellipse_1990" data-name="Ellipse 1990" class="cls-15" cx="359.43" cy="201.6" rx="23.76" ry="15.02" transform="translate(-32.28 329.65) rotate(-47.39)"/><path id="Path_6081" data-name="Path 6081" class="cls-14" d="M351,222.8a12.05,12.05,0,0,1-8.36-3c-6.5-6-4.27-19,5-29.07h0c9.24-10,22.05-13.35,28.55-7.37s4.27,19-5,29.06C365.11,219.1,357.41,222.8,351,222.8Zm-1.92-30.69c-8.5,9.23-10.78,21-5.09,26.24s17.24,2,25.74-7.26,10.78-21,5.09-26.24-17.24-2-25.73,7.26Z"/></g><path id="Path_6082" data-name="Path 6082" class="cls-14" d="M342.6,219.57a1,1,0,0,1-.59-.2c-4.38-3.29-5.6-8.85-5.86-12.93a28,28,0,0,1,21.7-29.86c13.09-3.91,19.54,8.07,19.6,8.2a1,1,0,0,1-1.77.92h0c-.23-.43-5.76-10.64-17.26-7.21a29.67,29.67,0,0,0-18.55,15.84c-2.21,5.41-3.55,18.27,3.33,23.45a1,1,0,0,1-.6,1.8Z"/><path id="Path_6083" data-name="Path 6083" class="cls-14" d="M243.36,164.83a11.08,11.08,0,0,1-2.75-.34c-3.49-.87-6.33-3.37-6.92-6.07-.71-3.31.9-9,2.61-14.93.88-3.07,1.79-6.24,2.36-9.06,1.1-5.43,7.05-8.8,12.12-9.64,4.25-.7,7.62.31,9,2.72a32.07,32.07,0,0,0,2.92,3.45c2.19,2.4,4.66,5.11,5.72,7.26,1.48,3-1.15,5.66-1.26,5.77a1,1,0,0,1-1.41-.14,1,1,0,0,1,0-1.28c.08-.08,1.71-1.76.87-3.47-.93-1.89-3.41-4.61-5.4-6.79a30.27,30.27,0,0,1-3.17-3.8c-.95-1.64-3.63-2.31-7-1.75-4.55.75-9.61,3.76-10.49,8.06-.58,2.9-1.5,6.11-2.39,9.21-1.56,5.48-3.18,11.15-2.57,14,.42,1.95,2.71,3.87,5.44,4.55,3.67.92,7.37-.45,10.16-3.74a1,1,0,0,1,1.4-.12h0a1,1,0,0,1,.12,1.4h0A12.31,12.31,0,0,1,243.36,164.83Z"/><path id="Path_6084" data-name="Path 6084" class="cls-14" d="M324.64,41.79a1,1,0,0,1-1-.79,2.12,2.12,0,0,0-.86-1.25c-1.33-.75-2.93.79-2.95.8a1,1,0,0,1-1.4-1.42c.11-.11,2.7-2.61,5.33-1.11a4,4,0,0,1,1.84,2.57,1,1,0,0,1-.78,1.18h0Z"/><g id="Group_6133" data-name="Group 6133"><ellipse id="Ellipse_1991" data-name="Ellipse 1991" class="cls-12" cx="376.57" cy="81.54" rx="4.08" ry="7.83" transform="translate(100.85 350.68) rotate(-56.53)"/><path id="Path_6085" data-name="Path 6085" class="cls-14" d="M380.29,88a12.45,12.45,0,0,1-6.53-2.25,13.34,13.34,0,0,1-4.28-4.4c-1-1.8-1.1-3.47-.28-4.71h0c.82-1.23,2.4-1.8,4.44-1.58a14.4,14.4,0,0,1,10,6.61c1,1.8,1.1,3.48.28,4.71A4.14,4.14,0,0,1,380.29,88Zm-7.47-11a2.25,2.25,0,0,0-1.95.74h0c-.38.57-.25,1.53.36,2.64a11.29,11.29,0,0,0,3.64,3.7c3.26,2.15,6.59,2.41,7.4,1.2.38-.58.25-1.54-.36-2.64a12.41,12.41,0,0,0-8.47-5.6c-.2,0-.41,0-.61,0Z"/></g><path id="Path_6086" data-name="Path 6086" class="cls-14" d="M361,116.16c-5.44,0-11-4-16.5-11.93a1,1,0,0,1,.25-1.39h0a1,1,0,0,1,1.38.25h0c5.68,8.15,11.2,11.83,16.41,10.94,12.23-2.09,19.57-28.17,19.65-28.43a1,1,0,0,1,1.22-.7h0a1,1,0,0,1,.7,1.22h0A86.45,86.45,0,0,1,378.65,100c-4.77,9.6-10.1,15-15.82,15.95A10.77,10.77,0,0,1,361,116.16Z"/><path id="Path_6087" data-name="Path 6087" class="cls-14" d="M316.33,67.59c-2.85,0-6.16-1-9.76-3.87a1,1,0,0,1-.16-1.4h0a1,1,0,0,1,1.4-.15c9.78,7.84,16.78-.07,17.07-.4a1,1,0,0,1,1.42,0,1,1,0,0,1,.1,1.31A14.52,14.52,0,0,1,316.33,67.59Z"/><path id="Path_6088" data-name="Path 6088" class="cls-14" d="M335.89,141.14a1,1,0,0,1-1-1c0-.12-.23-12.3-3.24-20.73a1.6,1.6,0,0,1,0-.21c0-.3-1-7.38-1.2-9.83-.63-6.57-1-12.89-1.31-18.46-.91-15.7-1.63-28.09-7.34-34.57a1,1,0,0,1,.09-1.41h0a1,1,0,0,1,1.41.09h0c6.16,7,6.9,19.69,7.83,35.77.34,5.83.69,11.86,1.31,18.39.22,2.25,1.06,8.75,1.18,9.66,2,5.71,2.81,12.83,3.12,17.22,15.85-36,1.79-71.26,1.64-71.62a1,1,0,0,1,.55-1.3h0a1,1,0,0,1,1.3.54,96,96,0,0,1,5.47,24c1.4,13.15,1,33-8.87,52.85A1,1,0,0,1,335.89,141.14Z"/><path id="Path_6089" data-name="Path 6089" class="cls-11" d="M372,82.84l.71-4.82,3.74-.12,3.47.54,1.16.76-.78,3-2,5.66Z"/><path id="Path_6090" data-name="Path 6090" class="cls-14" d="M372.92,82.81,371,82.3s1.16-4.39,1.54-5.74a1,1,0,0,1,1.22-.7h0a1,1,0,0,1,.7,1.23h0C374.08,78.44,372.92,82.81,372.92,82.81Z"/><path id="Path_6091" data-name="Path 6091" class="cls-14" d="M378.87,88a1,1,0,0,1-1-1.25h0a78.42,78.42,0,0,1,2.94-8.85,1,1,0,0,1,1.31-.54h0a1,1,0,0,1,.53,1.3h0a78.56,78.56,0,0,0-2.85,8.59A1,1,0,0,1,378.87,88Z"/><g id="Group_6134" data-name="Group 6134"><path id="Path_6092" data-name="Path 6092" class="cls-4" d="M373.13,79.21c-2.93-2.61-1.72-7.7-1.92-9.86s-1.11-3.34-3.84-7.12h0c-1.3-1.84-1.19-4.16.26-5.19s3.6-.38,4.91,1.38c0,0,2.35,2.87,1.79,5.69l1.07,2.12a72.86,72.86,0,0,0,1.65-10.79c.31-6.8,7.16-5.33,12.36-1s.5,14.06-1.7,18.9c-3.37,7.45-8.78,7.84-8.78,7.84S375.32,81.18,373.13,79.21Z"/><path id="Path_6093" data-name="Path 6093" class="cls-14" d="M378.91,82.14c-.39,0-4.08-.06-6.45-2.18h0c-2.57-2.3-2.39-6.12-2.27-8.65a14.43,14.43,0,0,0,0-1.86c-.17-1.83-.92-2.86-3.4-6.28l-.25-.35a5.67,5.67,0,0,1-1.09-3.53,3.87,3.87,0,0,1,1.58-3.06c1.87-1.32,4.63-.62,6.28,1.6a10.37,10.37,0,0,1,1.93,4,53.67,53.67,0,0,0,.79-6.44c.15-3.28,1.68-4.63,2.94-5.19,2.73-1.21,7.06.14,11.05,3.43,5.61,4.65,1.23,14.25-1.12,19.41l-.3.67c-3.57,7.9-9.37,8.4-9.62,8.42ZM369.2,57.56a1.68,1.68,0,0,0-1,.3c-1,.69-1,2.43,0,3.8l.25.34c2.58,3.56,3.54,4.89,3.77,7.26a15.29,15.29,0,0,1,0,2.14c-.11,2.28-.25,5.4,1.61,7.07h0a8.6,8.6,0,0,0,5.09,1.68h0c.4-.05,4.93-.67,7.92-7.26l.3-.67c2.13-4.68,6.1-13.37,1.66-17-3.3-2.73-7-4-9-3.15-1.09.48-1.68,1.64-1.76,3.46a73.62,73.62,0,0,1-1.67,11,1,1,0,0,1-1.21.74,1,1,0,0,1-.65-.51l-1.08-2.12a1,1,0,0,1-.09-.65c.47-2.31-1.56-4.83-1.58-4.86a3.42,3.42,0,0,0-2.56-1.49Z"/></g><path id="Path_6094" data-name="Path 6094" class="cls-14" d="M380.29,88a12.45,12.45,0,0,1-6.53-2.25,13.34,13.34,0,0,1-4.28-4.4c-1-1.8-1.1-3.47-.28-4.71a1,1,0,0,1,1.38-.28h0a1,1,0,0,1,.29,1.38c-.38.58-.25,1.54.36,2.64a11.17,11.17,0,0,0,3.63,3.7c3.26,2.16,6.6,2.41,7.4,1.2a1,1,0,0,1,1.39-.28h0a1,1,0,0,1,.28,1.38h0A4.16,4.16,0,0,1,380.29,88Z"/><path id="Path_6095" data-name="Path 6095" class="cls-14" d="M283.94,124.37a28.38,28.38,0,0,1-21.3-9.22c-7.09-7.8-9.67-19.2-7.07-31.28,4.49-20.81,25.74-43,45.4-39.35a1,1,0,0,1,.8,1.17h0a1,1,0,0,1-1.16.8c-8.2-1.53-17.83,2-26.39,9.75C266,63.7,259.71,74.19,257.53,84.3c-2.47,11.44-.06,22.2,6.59,29.51a26.8,26.8,0,0,0,23.36,8.36,1,1,0,0,1,.35,2h-.12A31.65,31.65,0,0,1,283.94,124.37Z"/><path id="Path_6096" data-name="Path 6096" class="cls-12" d="M289,109.52c-.66-2-1.59-3.24-2.52-3.17-1.6.1-2.64,4-2.32,8.79s1.88,8.51,3.49,8.4c.85-.06,1.55-1.2,2-3"/><g id="Group_6135" data-name="Group 6135"><path id="Path_6097" data-name="Path 6097" class="cls-11" d="M292.93,119.42l-7.32.72-.85-3.48-.95-4.48.39-1.77,4-.42,7.83-.22Z"/><path id="Path_6098" data-name="Path 6098" class="cls-14" d="M286.06,121.13a1,1,0,0,1-1-1,1,1,0,0,1,.88-1c1.77-.16,6.82-.86,6.87-.87a1,1,0,0,1,1.07.93,1,1,0,0,1-.79,1h0c-.21,0-5.15.71-7,.88Z"/><path id="Path_6099" data-name="Path 6099" class="cls-14" d="M286.14,111q-.79,0-1.53,0a1,1,0,0,1-1-1h0a1,1,0,0,1,1-1,150.28,150.28,0,0,0,15-.78,1,1,0,0,1,.2,2h0C299.53,110.19,291.83,111,286.14,111Z"/><path id="Path_6100" data-name="Path 6100" class="cls-14" d="M287.53,124.16c-.87,0-2.06-.55-3.06-3a23.15,23.15,0,0,1-.69-12.8c.75-2.69,2-3.31,2.83-3.36s2.42.58,3.48,3.91a1,1,0,0,1-.64,1.25h0a1,1,0,0,1-1.26-.64h0c-.66-2.08-1.36-2.52-1.47-2.52h0c-.08,0-.58.37-1,1.9a21.2,21.2,0,0,0,.62,11.52c.59,1.48,1.14,1.77,1.21,1.79s.65-.43,1.09-2.2a1,1,0,0,1,2,.37l0,.11c-.74,3-2,3.66-2.92,3.71Z"/></g><path id="Path_6109" data-name="Path 6109" class="cls-14" d="M285.79,107c-5.46,0-9.56-1.55-12.19-4.61-2.88-3.35-3.78-8.44-2.61-14.72,1.35-7.25,7.15-20.59,12.82-24.17A1,1,0,1,1,285,65.08l-.11.07h0c-5,3.14-10.66,16-11.93,22.86-1.05,5.66-.3,10.17,2.16,13s6.27,4.07,11.6,3.9a1,1,0,0,1,1.09.9,1,1,0,0,1-.9,1.09h-.13Z"/></g><path id="Path_9023" data-name="Path 9023" class="cls-14" d="M353.39,102.33l-.27-.2a4.37,4.37,0,0,0-.23-4.72,3.82,3.82,0,0,0-4.47-1l-.39.12h-.09a3.33,3.33,0,0,0-2.31-1.8,3.64,3.64,0,0,0-3.42,1.5A11.75,11.75,0,0,0,341,97.9L341,98a3,3,0,0,0-2.31-.28c-1.49.47-2,2-2.29,3-.13.4-.25.81-.36,1.21a2.89,2.89,0,0,0-2.66.9,3.22,3.22,0,0,0-1.44-.75c0-.09,0-.18-.07-.27a2.45,2.45,0,0,1-.08-.29c-.2-.75-.79-3-3.15-3.09a4.19,4.19,0,0,0-2.39-2.55,3,3,0,0,0-2.61.32c-.18.11-.18.11-.85-.08l-.18,0a3.64,3.64,0,0,0-3.38.63A3.72,3.72,0,0,0,318,100c0,.12,0,.23,0,.34a3.23,3.23,0,0,0-1.41,2c-.33,1.69.92,3,1.6,3.66.19.2.39.39.58.57a3.23,3.23,0,0,0,.13,2.23,3.79,3.79,0,0,0,2.36,1.87,3.43,3.43,0,0,0,2,2.76,6.51,6.51,0,0,0,2.63.28,2.44,2.44,0,0,1,0,1.14,9,9,0,0,1-3.27,4,2.1,2.1,0,1,0,2.6,3.3l.73-.6a2.11,2.11,0,0,0,1.2,2.72,2.14,2.14,0,0,0,2.09-.33l.25-.21a6,6,0,0,1,1.14-.8,9.57,9.57,0,0,1,2.67-.85h.1a1.35,1.35,0,0,1,0,.35,9.4,9.4,0,0,0,0,2.31,3.07,3.07,0,0,0,1.34,2.28,2.82,2.82,0,0,0,1.42.44c.57,1.57,1.06,2.39,2.14,2.8a2.64,2.64,0,0,0,1.73.07l.37.47a4.43,4.43,0,0,0,3.26,2h.28a3.37,3.37,0,0,0,2.18-1.17,3.47,3.47,0,0,0,4-1.09,4.32,4.32,0,0,0,.67-3c0-.2,0-.4,0-.6s0-.16,0-.24a3.77,3.77,0,0,0,.8-2.76,4,4,0,0,0-1.91-2.57l-.3-.2,0-.06c-.06-.13-.13-.32-.21-.52a5,5,0,0,0-1.48-2.32,5.11,5.11,0,0,0-1.5-.78,3,3,0,0,0-.48-1.67,2.13,2.13,0,0,0,.26-.26,2.08,2.08,0,0,0,.49-1.57l0-.43c.41-.06.82-.14,1.24-.23,1.12-.24,2.82-.61,3.44-2.17a2.93,2.93,0,0,0,0-2.18c.84-.51,1.64-1,2.42-1.63a3.09,3.09,0,0,0,1.3-2.46A3.25,3.25,0,0,0,353.39,102.33Z"/><g id="Group_6705" data-name="Group 6705"><path id="Path_9024" data-name="Path 9024" class="cls-6" d="M313.06,136.07l-29.94-3,10.28-4.44,32.71,2.3,5.45,63.18-7.68,1.37-8.62,6.36Z"/><path id="Path_9025" data-name="Path 9025" class="cls-14" d="M280.94,134.12a1,1,0,0,1-.31-2.05l6.71-2.08,7-1.88a1.19,1.19,0,0,1,.33,0L327.28,130a1.05,1.05,0,1,1-.07,2.1h0l-32.46-1.87L287.93,132l-6.68,2.07A1.06,1.06,0,0,1,280.94,134.12Z"/><g id="Group_6700" data-name="Group 6700"><g id="NrHhmZ.tif"><g id="Group_6697" data-name="Group 6697"><path id="Path_9026" data-name="Path 9026" class="cls-16" d="M324,120.54a11.26,11.26,0,0,0,4-5,4.71,4.71,0,0,0,0-2.58,1.79,1.79,0,0,0-2-1.36,4.53,4.53,0,0,1-1.87-.15,1.27,1.27,0,0,1-.64-1.06c.29-1-.09-1.28-.92-1.55-1.94-.62-2-.91-1.23-2.85-.49-.47-1-.94-1.52-1.46-1.55-1.58-1.44-2.18.65-3.11-.1-.54-.23-1.11-.29-1.68-.14-1.31.66-2,1.91-1.7a2.9,2.9,0,0,0,2.7-.1c1-.62,1.7.56,2,1.39s.66,1.17,1.61,1.14c1.15,0,1.25,1.09,1.5,1.9a8.09,8.09,0,0,1,.15,1.7c.3,0,.55,0,.78,0,1-.12,1.75.53,1.5,1.54a13,13,0,0,1-1.2,3.06,7.29,7.29,0,0,0-1,4.11,30,30,0,0,1-.21,3.79,4.7,4.7,0,0,0,1-.53c2.73-2.66,4.53-5.7,3.88-9.71a8.84,8.84,0,0,1-.13-1.14c0-1.06.52-1.43,1.55-1.08l1.3.46c.31-1.14.56-2.2.89-3.23.63-2,1-2,2.6-.8a1.12,1.12,0,0,0,1-.3c.66-.83,1.12-1.82,1.81-2.6,1.09-1.24,2-1.09,2.54.41.37,1,.77,1.37,1.71.68a1.36,1.36,0,0,1,.48-.16c.92-.22,2-.79,2.71.16s.24,2-.23,3c-.18.37-.4.72-.62,1.13.61.42,1.19.76,1.7,1.17.66.52.74,1.17.05,1.7s-1.65,1.16-2.52,1.68a15.23,15.23,0,0,1-1.4.7,2,2,0,0,0,.08.38c1.32,1.92,1.17,2.33-1.13,2.83-1,.21-2,.34-3,.49,0,.13-.11.2-.1.28.06.72.14,1.44.21,2.16a7.86,7.86,0,0,1-2.27.12c-3.89-.9-8.42.51-10.68,3.61,2.75-.3,5.34,1,7.93-.42a9.66,9.66,0,0,1,3-.86c1.57-.25,2,.36,1.52,1.88-.05.15-.08.31-.12.46a8.76,8.76,0,0,1,2.61.93c.57.44.75,1.39,1.1,2.11l-.35.22c.46.28.93.54,1.38.85,1.28.88,1.33,1.41.38,2.67a2,2,0,0,0-.19,1c-.06.84.2,1.92-.22,2.47-.67.87-1.77.4-2.68,0a2.14,2.14,0,0,0-.34-.09c-.1.05-.2.07-.24.13-1,1.83-1.81,1.91-3.14.26-.47-.58-.86-1.23-1.28-1.83-1.94,1.11-1.93,1.23-3.18-2.56a8.09,8.09,0,0,0-.82.19c-.74.24-1.18-.06-1.26-.78a7,7,0,0,1,0-1.77c.25-1.68-.62-2.87-2.32-2.75a11.21,11.21,0,0,0-3.35,1,8.69,8.69,0,0,0-1.87,1.3"/></g></g><g id="Group_6699" data-name="Group 6699"><g id="Group_6698" data-name="Group 6698"><path id="Path_9027" data-name="Path 9027" class="cls-17" d="M306.16,143.63l-4.33-4.81,17.34-17.3a4.48,4.48,0,0,1,6.34,0l.16.17h0a4.49,4.49,0,0,1-.33,6.34l-.17.15Z"/><path id="Path_9028" data-name="Path 9028" class="cls-14" d="M306.16,144.68a1.08,1.08,0,0,1-.79-.35l-4.32-4.81a1,1,0,0,1,0-1.45l17.33-17.29a5.54,5.54,0,1,1,7.83,7.85,4.83,4.83,0,0,1-.42.37l-19,15.44A1.07,1.07,0,0,1,306.16,144.68Zm-2.88-5.82,3,3.32,18.23-14.81a3.44,3.44,0,1,0-4.3-5.36l-.29.26Z"/></g><path id="Path_9029" data-name="Path 9029" class="cls-14" d="M318.11,129.56a1.07,1.07,0,0,1-.78-.35l-2.17-2.41a1.06,1.06,0,0,1,0-1.49,1,1,0,0,1,1.48,0l.05,0,2.17,2.41a1.07,1.07,0,0,1-.08,1.49A1.08,1.08,0,0,1,318.11,129.56Z"/><path id="Path_9030" data-name="Path 9030" class="cls-14" d="M316,135.8a1,1,0,0,1-.78-.34l-2.17-2.41a1.06,1.06,0,0,1,.11-1.49,1,1,0,0,1,1.45.08l2.17,2.4a1.06,1.06,0,0,1-.78,1.76Z"/></g></g><path id="Path_9031" data-name="Path 9031" class="cls-6" d="M326.12,130.93l5.43,63.18-7.68,1.37-8.62,6.36-2.19-65.77Z"/><path id="Path_9032" data-name="Path 9032" class="cls-5" d="M280.94,133.07l-1.73,59.08,35.44,10.13-1.16-66.17Z"/><g id="Group_6704" data-name="Group 6704"><g id="Group_6701" data-name="Group 6701"><path id="Path_8565" data-name="Path 8565" class="cls-5" d="M288.1,118.21l4.74-4.32L306.05,115l4.74,5.16Z"/><path id="Path_9033" data-name="Path 9033" class="cls-14" d="M310.8,121.25h-.09l-22.7-2a1,1,0,0,1-.95-1.14,1,1,0,0,1,.34-.68l4.74-4.33a1,1,0,0,1,.8-.27L306.15,114a1,1,0,0,1,.68.33l4.74,5.16a1.06,1.06,0,0,1-.06,1.49,1.1,1.1,0,0,1-.71.27Zm-20.22-3.88,17.6,1.54-2.63-2.86L293.21,115Z"/></g><g id="Group_6702" data-name="Group 6702"><path id="Path_8563" data-name="Path 8563" class="cls-5" d="M288.1,117.87l4.74-4v20.32l-4.74-.42Z"/><path id="Path_9034" data-name="Path 9034" class="cls-14" d="M292.85,135.26h-.09l-4.74-.41a1.05,1.05,0,0,1-1-1V117.87a1,1,0,0,1,.37-.8l4.74-4a1.05,1.05,0,0,1,1.73.8v20.32a1,1,0,0,1-1,1Zm-3.69-2.43,2.64.23V116.14l-2.64,2.22Z"/></g><g id="Group_6703" data-name="Group 6703"><path id="Path_8564" data-name="Path 8564" class="cls-5" d="M306.06,115l4.74,4.82v15.92l-4.74-.42Z"/><path id="Path_9035" data-name="Path 9035" class="cls-14" d="M310.8,136.83h-.09l-4.75-.41a1.06,1.06,0,0,1-1-1V115a1.06,1.06,0,0,1,1.06-1.05,1,1,0,0,1,.74.31l4.75,4.82a1.07,1.07,0,0,1,.3.74v15.92a1.06,1.06,0,0,1-1.06,1.05Zm-3.69-2.43,2.64.23V120.29l-2.64-2.68Z"/></g></g><path id="Path_9036" data-name="Path 9036" class="cls-14" d="M314.64,203.34a1.55,1.55,0,0,1-.29,0l-35.43-10.14a1,1,0,0,1-.76-1L279.89,133a1,1,0,0,1,.35-.76,1.11,1.11,0,0,1,.8-.26l32.31,3,7-2.44,6.51-2.58a1.05,1.05,0,0,1,1.37.59,1.08,1.08,0,0,1,.07.31l4.33,63.6a1.06,1.06,0,0,1-.93,1.12l-7.4.85-9,6.64A1.08,1.08,0,0,1,314.64,203.34Zm-34.36-12,34.16,9.77,8.81-6.5a1,1,0,0,1,.5-.2l6.68-.77-4.16-61.16-5.2,2.07h0l-7.2,2.52a1.17,1.17,0,0,1-.45.06L282,134.22Z"/><path id="path-2" class="cls-2" d="M296.8,174.62h0c14.62-5.5,9.15-14.15,9.15-14.15a6,6,0,0,0-4.58-3,5.06,5.06,0,0,0-4.68,2.15,5.79,5.79,0,0,0-4.56-2.95,4.68,4.68,0,0,0-4.58,2.15s-5.47,7.69,9.25,15.76C296.69,174.71,296.8,174.72,296.8,174.62Z"/><path id="Path_9037" data-name="Path 9037" class="cls-14" d="M314.64,203.34a1.05,1.05,0,0,1-1.05-1l-1.16-66.17a1.05,1.05,0,0,1,1-1.07,1.08,1.08,0,0,1,1.07,1l1.16,66.18a1.06,1.06,0,0,1-1,1.07Z"/><path id="Path_9038" data-name="Path 9038" class="cls-14" d="M323.87,196.53a1.05,1.05,0,0,1-1.05-1l-3.34-61.16a1.05,1.05,0,0,1,2.1-.17v.06l3.34,61.16a1.06,1.06,0,0,1-1,1.11h-.06Z"/></g><g id="Group_6151" data-name="Group 6151"><path id="Path_6107" data-name="Path 6107" class="cls-4" d="M293.83,107.81c7.42-3.45,14.74,1.74,17.1,3.43s5.86,3.7,5.56,4.46c-2.15,5.28-5.58,1.9-7.68.5-2.7-1.81-4.73-.48-5.35.54-1.28,2.1.36,4.53,1.1,6.9.5,1.6,1.82,6.15-3.78,5.1s-11.16-5.55-11.42-12.74C289.28,113.68,291.55,108.87,293.83,107.81Z"/><path id="Path_6108" data-name="Path 6108" class="cls-14" d="M288.37,115.84c0-2.58,2.3-7.65,5-8.93h0c5.31-2.47,11.41-1.29,18.1,3.52.64.46,1.34.93,2,1.39,2.85,1.9,4.41,3,3.88,4.26-.77,1.89-1.77,3-3.06,3.35-2,.57-3.93-.84-5.35-1.87l-.74-.53a3.38,3.38,0,0,0-2.6-.67,2.17,2.17,0,0,0-1.35.9c-.71,1.18-.13,2.63.55,4.31.23.57.47,1.17.65,1.77.33,1,1.19,3.78-.28,5.43-.92,1-2.48,1.35-4.64.94-5.69-1.07-11.94-5.81-12.22-13.68A1.2,1.2,0,0,1,288.37,115.84Zm27.05-.17a25.16,25.16,0,0,0-3-2.19c-.7-.47-1.42-1-2.08-1.42-2.26-1.63-9.15-6.57-16.1-3.34h0c-1.8.84-4,5.22-3.89,7.24.25,6.81,5.5,10.83,10.6,11.8,1.38.25,2.37.14,2.77-.31s.44-1.72-.12-3.51c-.17-.53-.38-1.06-.61-1.62-.76-1.9-1.63-4.06-.4-6.09a4.14,4.14,0,0,1,2.63-1.81,5.22,5.22,0,0,1,4.13,1c.25.17.52.36.8.57,1.15.83,2.59,1.87,3.64,1.57.6-.17,1.13-.79,1.61-1.85Z"/></g></g><g id="Group_6749" data-name="Group 6749"><path id="Path_9024-2" data-name="Path 9024-2" class="cls-6" d="M313.05,136.07l-29.93-3,10.28-4.44,32.71,2.3,5.44,63.18-7.67,1.37-8.62,6.36Z"/><path id="Path_9025-2" data-name="Path 9025-2" class="cls-14" d="M280.94,134.12a1,1,0,0,1-.31-2.05l6.71-2.08,7-1.88a1.32,1.32,0,0,1,.34,0L327.28,130a1.05,1.05,0,0,1-.07,2.1h0l-32.46-1.87L287.93,132l-6.68,2.07A1.1,1.1,0,0,1,280.94,134.12Z"/><g id="Group_6700-2" data-name="Group 6700-2"><g id="NrHhmZ.tif-2"><g id="Group_6697-2" data-name="Group 6697-2"><path id="Path_9026-2" data-name="Path 9026-2" class="cls-16" d="M324,120.54a11.26,11.26,0,0,0,4-5,4.81,4.81,0,0,0,0-2.58,1.8,1.8,0,0,0-2-1.36,4.53,4.53,0,0,1-1.87-.15,1.25,1.25,0,0,1-.64-1.06c.28-1-.09-1.28-.92-1.55-1.94-.62-2-.91-1.23-2.85-.49-.47-1-.94-1.52-1.46-1.55-1.58-1.44-2.18.64-3.11-.1-.54-.22-1.11-.28-1.68-.15-1.31.66-2,1.91-1.7a2.9,2.9,0,0,0,2.7-.1c1-.62,1.7.56,2,1.39s.66,1.17,1.61,1.14c1.15,0,1.25,1.09,1.5,1.9a8.09,8.09,0,0,1,.15,1.7c.3,0,.55,0,.78,0,1-.12,1.75.53,1.5,1.54a13,13,0,0,1-1.2,3.06,7.29,7.29,0,0,0-1,4.11,30,30,0,0,1-.21,3.79,4.94,4.94,0,0,0,1-.53c2.73-2.66,4.53-5.7,3.88-9.71a8.84,8.84,0,0,1-.13-1.14c0-1.06.52-1.43,1.55-1.08l1.3.46c.31-1.14.56-2.2.89-3.23.63-2,1-2,2.6-.8a1.12,1.12,0,0,0,1-.3c.66-.83,1.11-1.82,1.8-2.6,1.09-1.24,2-1.09,2.55.41.37,1,.76,1.37,1.71.68a1.36,1.36,0,0,1,.48-.16c.92-.22,2-.79,2.71.16s.24,2-.23,3c-.18.37-.4.72-.62,1.13.61.42,1.18.76,1.7,1.17s.74,1.17.05,1.7-1.65,1.16-2.52,1.68a15.23,15.23,0,0,1-1.4.7c0,.22,0,.32.08.38,1.32,1.92,1.17,2.33-1.14,2.83-1,.21-2,.34-3,.49,0,.13-.11.2-.1.28q.09,1.08.21,2.16a7.86,7.86,0,0,1-2.27.12c-3.89-.9-8.42.51-10.68,3.61,2.75-.3,5.34,1,7.92-.42a9.79,9.79,0,0,1,3-.86c1.57-.25,2,.36,1.52,1.88-.05.15-.08.31-.13.46a8.72,8.72,0,0,1,2.62.93c.57.44.75,1.39,1.1,2.11l-.35.22c.46.28.93.54,1.38.85,1.28.88,1.33,1.41.38,2.67a2,2,0,0,0-.19,1c-.06.84.2,1.92-.22,2.47-.67.87-1.77.4-2.68,0a2.14,2.14,0,0,0-.34-.09c-.1.05-.2.07-.24.13-1,1.83-1.81,1.91-3.14.26-.47-.58-.86-1.23-1.28-1.83-1.94,1.11-1.93,1.23-3.18-2.56a8.09,8.09,0,0,0-.82.19c-.74.24-1.18-.06-1.26-.78a6.56,6.56,0,0,1,0-1.77c.25-1.68-.62-2.87-2.32-2.75a11.12,11.12,0,0,0-3.35,1,8.69,8.69,0,0,0-1.87,1.3"/></g></g><g id="Group_6699-2" data-name="Group 6699-2"><g id="Group_6698-2" data-name="Group 6698-2"><path id="Path_9027-2" data-name="Path 9027-2" class="cls-17" d="M306.15,143.63l-4.32-4.81,17.33-17.3a4.5,4.5,0,0,1,6.35,0l.16.17h0a4.49,4.49,0,0,1-.33,6.34l-.18.15Z"/><path id="Path_9028-2" data-name="Path 9028-2" class="cls-14" d="M306.16,144.68a1.08,1.08,0,0,1-.79-.35l-4.32-4.81a1.05,1.05,0,0,1,0-1.45l17.34-17.29a5.54,5.54,0,1,1,7.82,7.85,4.72,4.72,0,0,1-.41.37l-19,15.44A1.07,1.07,0,0,1,306.16,144.68Zm-2.88-5.82,3,3.32,18.23-14.81a3.44,3.44,0,1,0-4.3-5.36l-.29.26Z"/></g><path id="Path_9029-2" data-name="Path 9029-2" class="cls-14" d="M318.11,129.56a1.07,1.07,0,0,1-.78-.35l-2.17-2.41a1.05,1.05,0,0,1,1.52-1.46l0,0,2.17,2.41a1.06,1.06,0,0,1-.07,1.49A1.1,1.1,0,0,1,318.11,129.56Z"/><path id="Path_9030-2" data-name="Path 9030-2" class="cls-14" d="M316,135.8a1,1,0,0,1-.78-.34l-2.17-2.41a1.07,1.07,0,0,1,.1-1.49,1,1,0,0,1,1.46.08l2.17,2.4a1.06,1.06,0,0,1-.78,1.76Z"/></g></g><path id="Path_9031-2" data-name="Path 9031-2" class="cls-6" d="M326.12,130.93l5.43,63.18-7.68,1.37-8.62,6.36-2.19-65.77Z"/><path id="Path_9032-2" data-name="Path 9032-2" class="cls-5" d="M280.94,133.07l-1.73,59.08,35.44,10.13-1.16-66.17Z"/><g id="Group_6704-2" data-name="Group 6704-2"><g id="Group_6701-2" data-name="Group 6701-2"><path id="Path_8565-2" data-name="Path 8565-2" class="cls-5" d="M288.1,118.21l4.74-4.32L306.05,115l4.74,5.16Z"/><path id="Path_9033-2" data-name="Path 9033-2" class="cls-14" d="M310.8,121.25h-.09l-22.7-2a1.05,1.05,0,0,1-.62-1.82l4.75-4.33a1,1,0,0,1,.8-.27L306.15,114a1,1,0,0,1,.68.33l4.74,5.16a1.06,1.06,0,0,1-.06,1.49,1.1,1.1,0,0,1-.71.27Zm-20.22-3.88,17.6,1.54-2.63-2.86L293.21,115Z"/></g><g id="Group_6702-2" data-name="Group 6702-2"><path id="Path_8563-2" data-name="Path 8563-2" class="cls-5" d="M288.1,117.87l4.74-4v20.32l-4.74-.42Z"/><path id="Path_9034-2" data-name="Path 9034-2" class="cls-14" d="M292.85,135.26h-.09l-4.75-.41a1.06,1.06,0,0,1-1-1V117.87a1.09,1.09,0,0,1,.38-.8l4.74-4a1.05,1.05,0,0,1,1.73.8v20.32a1,1,0,0,1-1,1Zm-3.69-2.43,2.64.23V116.14l-2.64,2.22Z"/></g><g id="Group_6703-2" data-name="Group 6703-2"><path id="Path_8564-2" data-name="Path 8564-2" class="cls-5" d="M306.06,115l4.74,4.82v15.92l-4.74-.42Z"/><path id="Path_9035-2" data-name="Path 9035-2" class="cls-14" d="M310.8,136.83h-.1l-4.74-.41a1.06,1.06,0,0,1-1-1V115a1.06,1.06,0,0,1,1.06-1.05,1,1,0,0,1,.74.31l4.74,4.82a1,1,0,0,1,.31.74v15.92a1.06,1.06,0,0,1-1.06,1.05Zm-3.69-2.43,2.63.23V120.29l-2.63-2.68Z"/></g></g><path id="Path_9036-2" data-name="Path 9036-2" class="cls-14" d="M314.64,203.34a1.45,1.45,0,0,1-.29,0l-35.43-10.14a1.05,1.05,0,0,1-.77-1L279.89,133a1,1,0,0,1,.35-.76,1.11,1.11,0,0,1,.8-.26l32.31,3,7-2.44,6.51-2.58a1.05,1.05,0,0,1,1.37.59,1.08,1.08,0,0,1,.07.31l4.33,63.6a1.06,1.06,0,0,1-.93,1.12l-7.4.85-9,6.64A1.08,1.08,0,0,1,314.64,203.34Zm-34.36-12,34.15,9.77,8.82-6.5a1,1,0,0,1,.5-.2l6.68-.77-4.17-61.16-5.19,2.07h0l-7.2,2.52a1.17,1.17,0,0,1-.45.06L282,134.22Z"/><path id="path-3" class="cls-2" d="M296.8,174.62h0c14.62-5.5,9.15-14.15,9.15-14.15a6,6,0,0,0-4.58-3,5,5,0,0,0-4.68,2.15,5.79,5.79,0,0,0-4.56-2.95,4.68,4.68,0,0,0-4.58,2.15s-5.48,7.69,9.25,15.76C296.69,174.71,296.8,174.72,296.8,174.62Z"/><path id="Path_9037-2" data-name="Path 9037-2" class="cls-14" d="M314.64,203.34a1.05,1.05,0,0,1-1.05-1l-1.16-66.17a1.05,1.05,0,0,1,1-1.07,1.06,1.06,0,0,1,1.07,1l1.16,66.18a1.05,1.05,0,0,1-1,1.07Z"/><path id="Path_9038-2" data-name="Path 9038-2" class="cls-14" d="M323.87,196.53a1.05,1.05,0,0,1-1.05-1l-3.34-61.16a1,1,0,0,1,1-1.13,1.05,1.05,0,0,1,1.14,1v.06l3.34,61.16a1.06,1.06,0,0,1-1,1.11h-.06Z"/></g></g></g></svg>