<svg xmlns="http://www.w3.org/2000/svg" viewBox="0 0 108 108"><defs><style>.cls-1{fill:none;}.cls-2{fill:#fb9196;}</style></defs><g id="Layer_2" data-name="Layer 2"><g id="Layer_1-2" data-name="Layer 1"><g id="Group_6423" data-name="Group 6423"><g id="Group_6104" data-name="Group 6104"><g id="Ellipse_1805" data-name="Ellipse 1805"><circle id="Ellipse_1822" data-name="Ellipse 1822" class="cls-1" cx="54" cy="54" r="54"/><path id="Path_5318" data-name="Path 5318" class="cls-2" d="M54,107.94A53.95,53.95,0,1,1,108,54,54,54,0,0,1,54,107.94Zm0-91A37.09,37.09,0,1,0,91.09,54,37.13,37.13,0,0,0,54,16.91Z"/></g></g><path id="path" class="cls-2" d="M54.09,71.62h0c27.24-12.64,17-27.85,17-27.85A10,10,0,0,0,62.6,39a10.34,10.34,0,0,0-8.71,4.77A9.74,9.74,0,0,0,45.38,39a9.61,9.61,0,0,0-8.53,4.77S26.65,59,54.09,71.62C53.89,71.8,54.09,71.8,54.09,71.62Z"/></g></g></g></svg>