<svg xmlns="http://www.w3.org/2000/svg" viewBox="0 0 132.83 264.85"><defs><style>.cls-1{fill:none;}.cls-2{fill:#69a105;}.cls-3{fill:#9ad700;}.cls-4{fill:#6c9d2b;}.cls-5{fill:#f7aa7b;}.cls-6{fill:#e0996e;}.cls-7{fill:#2cb250;}.cls-8{fill:#fb9196;}.cls-9{fill:#2bd4cf;}.cls-10{fill:#f97c22;}.cls-11{fill:#2e7979;}.cls-12{fill:#ffd664;}.cls-13{fill:#d38349;}.cls-14{fill:#c17646;}</style></defs><g id="Layer_2" data-name="Layer 2"><g id="Layer_1-2" data-name="Layer 1"><path class="cls-1" d="M115,142.1c17.71-17.71,17.81-46.32,17.81-46.32s-28.6.1-46.31,17.82S68.7,159.91,68.7,159.91,97.31,159.8,115,142.1Z"/><path class="cls-1" d="M17.81,142.1C.1,124.39,0,95.78,0,95.78s28.6.1,46.31,17.82,17.81,46.31,17.81,46.31S35.52,159.8,17.81,142.1Z"/><path id="Path_4505-2" data-name="Path 4505-2" class="cls-2" d="M114.78,142.1c17.71-17.71,17.82-46.32,17.82-46.32s-28.6.1-46.32,17.82-17.81,46.31-17.81,46.31S97.08,159.8,114.78,142.1Z"/><path class="cls-3" d="M132.58,95.78c-.37,0-28.7.22-46.3,17.82s-17.81,45.9-17.81,46.29Z"/><path id="Path_4505-2-2" data-name="Path 4505-2" class="cls-2" d="M17.81,142.1C.1,124.39,0,95.78,0,95.78s28.6.1,46.31,17.82,17.81,46.31,17.81,46.31S35.52,159.8,17.81,142.1Z"/><path class="cls-3" d="M0,95.78c.36,0,28.7.22,46.29,17.82s17.81,45.9,17.81,46.29Z"/><path class="cls-4" d="M66.3,189.4a2.18,2.18,0,0,1-2.18-2.17V89.72a2.18,2.18,0,1,1,4.35,0v97.51A2.17,2.17,0,0,1,66.3,189.4Z"/><rect id="Rectangle_2374" data-name="Rectangle 2374" class="cls-5" x="12.01" y="173.31" width="108.57" height="19.16"/><path id="Path_5421" data-name="Path 5421" class="cls-5" d="M22.65,192.47h87.29L98.37,264.85H34.22Z"/><rect id="Rectangle_2375" data-name="Rectangle 2375" class="cls-6" x="66.3" y="173.31" width="54.29" height="19.16"/><polygon class="cls-1" points="22.66 192.47 109.94 192.47 98.37 264.85 34.22 264.85 22.66 192.47"/><path id="Path_5422" data-name="Path 5422" class="cls-6" d="M66.43,192.47h43.5l-11.7,72.38H66.43Z"/><path id="Subtraction_107" data-name="Subtraction 107" class="cls-7" d="M58,35.94A85,85,0,0,1,52,26a21.28,21.28,0,0,1-2.73-8.75,17.28,17.28,0,0,1,34.56,0v0A21.21,21.21,0,0,1,81.12,26a83.59,83.59,0,0,1-6,9.86,20.33,20.33,0,0,0-17.17,0Z"/><path id="Subtraction_110" data-name="Subtraction 110" class="cls-8" d="M66.55,108.28A17.26,17.26,0,0,1,49.27,91v0A21.36,21.36,0,0,1,52,82.24a85,85,0,0,1,6-9.9,20.37,20.37,0,0,0,4.15,1.43,20.34,20.34,0,0,0,13-1.4,84.87,84.87,0,0,1,6,9.89A21.21,21.21,0,0,1,83.83,91a17.25,17.25,0,0,1-17.22,17.28h-.06Z"/><path id="Subtraction_108" data-name="Subtraction 108" class="cls-9" d="M94.4,52.81c-2.33,0-4.93-.11-7.73-.33a20.23,20.23,0,0,0-5.33-12A20.53,20.53,0,0,0,78,37.57a84.28,84.28,0,0,1,5.57-10.12,21.34,21.34,0,0,1,6.21-6.72A17.28,17.28,0,0,1,107.1,50.66h0A27.23,27.23,0,0,1,94.4,52.81Z"/><path id="Subtraction_111" data-name="Subtraction 111" class="cls-10" d="M34.65,89.85h0A17.28,17.28,0,0,1,26,57.61a27.2,27.2,0,0,1,12.69-2.13c2.36,0,5,.11,7.84.33a20.31,20.31,0,0,0,8.55,14.84,86.17,86.17,0,0,1-5.6,10.14,21.35,21.35,0,0,1-6.23,6.74A17.09,17.09,0,0,1,34.65,89.85Z"/><path id="Subtraction_109" data-name="Subtraction 109" class="cls-11" d="M98.44,89.85a17.2,17.2,0,0,1-8.63-2.32,21.23,21.23,0,0,1-6.21-6.72A85.44,85.44,0,0,1,78,70.71,20.39,20.39,0,0,0,86.66,55.8c2.8-.22,5.4-.33,7.73-.33a27.37,27.37,0,0,1,12.7,2.13,17.28,17.28,0,0,1-8.66,32.25Z"/><path id="Subtraction_112" data-name="Subtraction 112" class="cls-12" d="M38.7,52.81A27.27,27.27,0,0,1,26,50.67,17.28,17.28,0,0,1,42.71,20.42l.18.1.39.23a21.32,21.32,0,0,1,6.22,6.74,85.6,85.6,0,0,1,5.61,10.14,20.27,20.27,0,0,0-8.55,14.84C43.7,52.69,41.06,52.81,38.7,52.81Z"/><g id="Group_6813" data-name="Group 6813"><g id="Mask_Group_17" data-name="Mask Group 17"><polygon id="Rectangle_2376" data-name="Rectangle 2376" class="cls-13" points="22.65 192.47 66.43 192.47 66.43 202.05 24.19 202.05 22.65 192.47"/></g></g><g id="Group_6813-2" data-name="Group 6813"><g id="Mask_Group_17-2" data-name="Mask Group 17"><polygon id="Rectangle_2376-2" data-name="Rectangle 2376" class="cls-14" points="109.94 192.47 66.29 192.47 66.29 202.05 108.41 202.05 109.94 192.47"/></g></g></g></g></svg>