<?xml version="1.0" encoding="utf-8"?>
<!-- Generator: Adobe Illustrator 23.0.6, SVG Export Plug-In . SVG Version: 6.00 Build 0)  -->
<svg version="1.1" id="Layer_1" xmlns="http://www.w3.org/2000/svg" xmlns:xlink="http://www.w3.org/1999/xlink" x="0px" y="0px"
	 viewBox="0 0 165.3 165.3" style="enable-background:new 0 0 165.3 165.3;" xml:space="preserve">
<style type="text/css">
	.st0{opacity:0.7;fill:url(#Ellipse_1780_1_);enable-background:new    ;}
	.st1{fill:#FFFFFF;}
	.st2{fill:#2BD4CF;}
</style>
<radialGradient id="Ellipse_1780_1_" cx="-721.1088" cy="4.5886" r="0.5002" gradientTransform="matrix(165.336 0 0 165.336 119307.9375 -675.961)" gradientUnits="userSpaceOnUse">
	<stop  offset="0" style="stop-color:#2BD4CF"/>
	<stop  offset="1" style="stop-color:#2BD4CF;stop-opacity:0"/>
</radialGradient>
<circle id="Ellipse_1780" class="st0" cx="82.7" cy="82.7" r="82.7"/>
<g id="Group_4840" transform="translate(124 141.001)">
	<g id="Ellipse_1778">
		<circle class="st1" cx="-40.5" cy="-57.5" r="64.5"/>
		<path class="st2" d="M-40.5,7C-76.1,7-105-21.9-105-57.5S-76.1-122-40.5-122S24-93.1,24-57.5S-4.9,7-40.5,7z M-40.5-116
			C-72.8-116-99-89.8-99-57.5S-72.8,1-40.5,1S18-25.2,18-57.5S-8.2-116-40.5-116z"/>
	</g>
</g>
<path id="Path_5200" class="st2" d="M103.5,67.9c0-8.7-7.8-16.1-19.4-16.1c-11.7,0-17.5,4.9-19.4,7L68.9,69c3.4-3.4,8-5.4,12.8-5.4
	c5.4,0,8.7,2.1,8.7,5.9c0,2.5-2,4.2-4,5.6l-5.5,4c-3.8,2.7-5.8,5.5-5.7,11.2l0.1,5.9h12.3l0.1-4.3c-0.1-1.2,0.2-2.4,1-3.4
	c1.4-1.5,5.1-3.6,8.3-6.4C100.5,78.8,103.5,75.5,103.5,67.9z M89.9,108.6c0-4.9-3.4-7.8-8.5-7.8s-8.5,2.9-8.5,7.8
	c0,4.9,3.4,7.8,8.5,7.8S89.9,113.5,89.9,108.6z"/>
</svg>
