<?xml version="1.0" encoding="utf-8"?>
<!-- Generator: Adobe Illustrator 23.0.4, SVG Export Plug-In . SVG Version: 6.00 Build 0)  -->
<svg version="1.1" id="Layer_1" xmlns="http://www.w3.org/2000/svg" xmlns:xlink="http://www.w3.org/1999/xlink" x="0px" y="0px"
	 viewBox="0 0 326.5 326.5" style="enable-background:new 0 0 326.5 326.5;" xml:space="preserve">
<style type="text/css">
	.st0{fill:none;}
	.st1{fill:#F0F0ED;}
</style>
<rect y="0" class="st0" width="326.5" height="326.5"/>
<g>
	<g>
		<path class="st1" d="M317.6,170.5c-0.6,0-1-0.5-1-1s0.5-1,1-1c0.6,0,1,0.5,1,1C318.6,170.1,318.1,170.5,317.6,170.5z"/>
	</g>
	<g>
		<path class="st1" d="M317.1,176.9c-0.6,0-1-0.5-0.9-1.1c0-0.5,0.5-1,1.1-0.9c0.6,0,1,0.5,0.9,1.1
			C318.2,176.5,317.7,176.9,317.1,176.9z"/>
	</g>
	<g>
		<path class="st1" d="M316.4,183.2c-0.5-0.1-0.9-0.6-0.9-1.1c0.1-0.5,0.6-0.9,1.1-0.9c0.5,0.1,0.9,0.6,0.9,1.1
			C317.5,182.9,317,183.3,316.4,183.2z"/>
	</g>
	<g>
		<path class="st1" d="M315.5,189.5c-0.5-0.1-0.9-0.6-0.8-1.1s0.6-0.9,1.2-0.8c0.6,0.1,0.9,0.6,0.8,1.1
			C316.6,189.3,316,189.6,315.5,189.5z"/>
	</g>
	<g>
		<path class="st1" d="M314.3,195.8c-0.5-0.1-0.9-0.6-0.8-1.2c0.1-0.5,0.6-0.9,1.2-0.8c0.5,0.1,0.9,0.6,0.8,1.2
			C315.4,195.6,314.8,195.9,314.3,195.8z"/>
	</g>
	<g>
		<path class="st1" d="M312.8,202c-0.5-0.1-0.9-0.7-0.7-1.2c0.1-0.5,0.7-0.9,1.2-0.7c0.5,0.1,0.9,0.7,0.7,1.2S313.4,202.2,312.8,202
			z"/>
	</g>
	<g>
		<path class="st1" d="M311.1,208.2c-0.5-0.2-0.8-0.7-0.7-1.2s0.7-0.8,1.2-0.7c0.5,0.2,0.8,0.7,0.7,1.2
			C312.2,208,311.6,208.3,311.1,208.2z"/>
	</g>
	<g>
		<path class="st1" d="M309.1,214.2c-0.5-0.2-0.8-0.8-0.6-1.3c0.2-0.5,0.7-0.8,1.3-0.6c0.5,0.2,0.8,0.7,0.6,1.3
			S309.6,214.4,309.1,214.2z"/>
	</g>
	<g>
		<path class="st1" d="M306.9,220.2c-0.5-0.2-0.8-0.8-0.6-1.3c0.2-0.5,0.8-0.8,1.3-0.6s0.8,0.8,0.6,1.3
			C308,220.2,307.4,220.4,306.9,220.2z"/>
	</g>
	<g>
		<path class="st1" d="M304.4,226.1c-0.5-0.2-0.7-0.8-0.5-1.3s0.8-0.7,1.3-0.5s0.7,0.8,0.5,1.3S304.9,226.3,304.4,226.1z"/>
	</g>
	<g>
		<path class="st1" d="M301.7,231.9c-0.5-0.2-0.7-0.8-0.4-1.3c0.2-0.5,0.8-0.7,1.3-0.5s0.7,0.8,0.5,1.3
			C302.8,232,302.2,232.2,301.7,231.9z"/>
	</g>
	<g>
		<path class="st1" d="M288.5,253.7c-0.4-0.3-0.6-0.9-0.2-1.4c0.3-0.4,0.9-0.5,1.4-0.2s0.6,0.9,0.2,1.4S288.9,254.1,288.5,253.7z"/>
	</g>
	<g>
		<path class="st1" d="M284.6,258.8c-0.4-0.3-0.5-1-0.2-1.4s1-0.5,1.4-0.2s0.5,1,0.2,1.4C285.7,259.1,285,259.2,284.6,258.8z"/>
	</g>
	<g>
		<path class="st1" d="M280.6,263.8c-0.4-0.4-0.5-1-0.1-1.4s1-0.5,1.4-0.1s0.5,1,0.1,1.4S281,264.1,280.6,263.8z"/>
	</g>
	<g>
		<path class="st1" d="M276.3,268.5c-0.4-0.4-0.4-1,0-1.4s1-0.4,1.4-0.1c0.4,0.4,0.4,1,0.1,1.4C277.4,268.9,276.7,268.9,276.3,268.5
			z"/>
	</g>
	<g>
		<path class="st1" d="M271.9,273.1c-0.4-0.4-0.4-1,0-1.4s1-0.4,1.4,0s0.4,1,0,1.4S272.3,273.5,271.9,273.1z"/>
	</g>
	<g>
		<path class="st1" d="M267.2,277.5c-0.4-0.4-0.3-1,0-1.4s1-0.4,1.4,0.1c0.4,0.4,0.4,1,0,1.4S267.6,277.9,267.2,277.5z"/>
	</g>
	<g>
		<path class="st1" d="M262.4,281.7c-0.4-0.4-0.3-1.1,0.1-1.4c0.4-0.4,1-0.3,1.4,0.1s0.3,1.1-0.1,1.4S262.8,282.1,262.4,281.7z"/>
	</g>
	<g>
		<path class="st1" d="M257.4,285.7c-0.3-0.4-0.3-1.1,0.2-1.4c0.4-0.3,1.1-0.3,1.4,0.2s0.3,1.1-0.2,1.4
			C258.4,286.2,257.8,286.1,257.4,285.7z"/>
	</g>
	<g>
		<path class="st1" d="M252.3,289.5c-0.3-0.5-0.2-1.1,0.2-1.4s1.1-0.2,1.4,0.2s0.2,1.1-0.2,1.4C253.2,290,252.6,289.9,252.3,289.5z"
			/>
	</g>
	<g>
		<path class="st1" d="M247,293.1c-0.3-0.5-0.2-1.1,0.3-1.4s1.1-0.2,1.4,0.3s0.2,1.1-0.3,1.4C247.9,293.7,247.3,293.5,247,293.1z"/>
	</g>
	<g>
		<path class="st1" d="M241.6,296.4c-0.3-0.5-0.1-1.1,0.4-1.4s1.1-0.1,1.4,0.3c0.3,0.5,0.1,1.1-0.3,1.4
			C242.5,297.1,241.8,296.9,241.6,296.4z"/>
	</g>
	<g>
		<path class="st1" d="M236,299.6c-0.3-0.5-0.1-1.1,0.4-1.4s1.1-0.1,1.3,0.4c0.3,0.5,0.1,1.1-0.4,1.4
			C236.9,300.3,236.3,300.1,236,299.6z"/>
	</g>
	<g>
		<path class="st1" d="M230.3,302.5c-0.2-0.5,0-1.1,0.5-1.3c0.5-0.2,1.1,0,1.3,0.4c0.2,0.5,0,1.1-0.5,1.3S230.5,303,230.3,302.5z"/>
	</g>
	<g>
		<path class="st1" d="M224.5,305.1c-0.2-0.5,0-1.1,0.5-1.3c0.5-0.2,1.1,0,1.3,0.5s0,1.1-0.5,1.3S224.7,305.6,224.5,305.1z"/>
	</g>
	<g>
		<path class="st1" d="M218.6,307.5c-0.2-0.5,0.1-1.1,0.6-1.3c0.5-0.2,1.1,0.1,1.3,0.6s0,1.1-0.6,1.3S218.8,308,218.6,307.5z"/>
	</g>
	<g>
		<path class="st1" d="M212.6,309.7c-0.2-0.5,0.1-1.1,0.6-1.3c0.5-0.2,1.1,0.1,1.3,0.6s-0.1,1.1-0.6,1.3
			C213.3,310.5,212.7,310.2,212.6,309.7z"/>
	</g>
	<g>
		<path class="st1" d="M206.5,311.6c-0.2-0.5,0.1-1.1,0.7-1.2c0.5-0.1,1.1,0.2,1.2,0.7c0.2,0.5-0.1,1.1-0.7,1.2
			C207.2,312.4,206.6,312.1,206.5,311.6z"/>
	</g>
	<g>
		<path class="st1" d="M200.3,313.3c-0.1-0.5,0.2-1.1,0.7-1.2s1.1,0.2,1.2,0.7c0.1,0.5-0.2,1.1-0.7,1.2
			C201,314.2,200.4,313.8,200.3,313.3z"/>
	</g>
	<g>
		<path class="st1" d="M194.1,314.7c-0.1-0.5,0.2-1.1,0.8-1.2c0.5-0.1,1.1,0.2,1.2,0.8c0.1,0.5-0.2,1.1-0.8,1.2
			S194.2,315.2,194.1,314.7z"/>
	</g>
	<g>
		<path class="st1" d="M187.8,315.8c-0.1-0.5,0.3-1.1,0.8-1.2s1.1,0.3,1.1,0.8c0.1,0.5-0.3,1.1-0.8,1.2S187.9,316.3,187.8,315.8z"/>
	</g>
	<g>
		<path class="st1" d="M181.5,316.7c-0.1-0.5,0.3-1,0.9-1.1s1,0.3,1.1,0.9c0.1,0.5-0.3,1-0.9,1.1C182,317.6,181.5,317.2,181.5,316.7
			z"/>
	</g>
	<g>
		<path class="st1" d="M175.1,317.3c0-0.6,0.4-1,0.9-1.1c0.5,0,1,0.4,1.1,0.9c0,0.6-0.4,1-0.9,1.1S175.1,317.8,175.1,317.3z"/>
	</g>
	<g>
		<path class="st1" d="M168.7,317.6c0-0.6,0.4-1,1-1c0.5,0,1,0.4,1,1s-0.4,1-1,1C169.2,318.6,168.7,318.2,168.7,317.6z"/>
	</g>
	<g>
		<path class="st1" d="M162.3,317.8c0-0.6,0.5-1,1-1s1,0.4,1,1s-0.4,1-1,1S162.3,318.3,162.3,317.8z"/>
	</g>
	<g>
		<path class="st1" d="M156,317.6c0-0.6,0.5-1,1-1s1,0.5,1,1c0,0.6-0.5,1-1,1C156.4,318.6,155.9,318.1,156,317.6z"/>
	</g>
	<g>
		<path class="st1" d="M149.6,317.1c0-0.6,0.5-1,1.1-0.9c0.5,0,1,0.5,0.9,1.1c0,0.6-0.5,1-1.1,0.9S149.5,317.7,149.6,317.1z"/>
	</g>
	<g>
		<path class="st1" d="M143.2,316.4c0.1-0.5,0.6-0.9,1.1-0.9c0.5,0.1,0.9,0.6,0.9,1.1c-0.1,0.5-0.6,0.9-1.1,0.9
			C143.5,317.5,143.2,317,143.2,316.4z"/>
	</g>
	<g>
		<path class="st1" d="M136.9,315.5c0.1-0.5,0.6-0.9,1.1-0.8s0.9,0.6,0.8,1.2c-0.1,0.6-0.6,0.9-1.1,0.8S136.8,316,136.9,315.5z"/>
	</g>
	<g>
		<path class="st1" d="M130.6,314.3c0.1-0.5,0.6-0.9,1.2-0.8c0.5,0.1,0.9,0.6,0.8,1.2c-0.1,0.5-0.6,0.9-1.2,0.8
			C130.9,315.4,130.5,314.8,130.6,314.3z"/>
	</g>
	<g>
		<path class="st1" d="M124.4,312.8c0.1-0.5,0.7-0.9,1.2-0.7s0.9,0.7,0.7,1.2c-0.1,0.5-0.7,0.9-1.2,0.7S124.3,313.4,124.4,312.8z"/>
	</g>
	<g>
		<path class="st1" d="M118.3,311.1c0.2-0.5,0.7-0.8,1.2-0.7s0.8,0.7,0.7,1.2c-0.2,0.5-0.7,0.8-1.2,0.7S118.1,311.6,118.3,311.1z"/>
	</g>
	<g>
		<path class="st1" d="M112.2,309.1c0.2-0.5,0.8-0.8,1.3-0.6c0.5,0.2,0.8,0.7,0.6,1.3c-0.2,0.5-0.7,0.8-1.3,0.6
			C112.3,310.2,112,309.6,112.2,309.1z"/>
	</g>
	<g>
		<path class="st1" d="M106.2,306.9c0.2-0.5,0.8-0.8,1.3-0.6c0.5,0.2,0.8,0.8,0.6,1.3s-0.8,0.8-1.3,0.6S106,307.4,106.2,306.9z"/>
	</g>
	<g>
		<path class="st1" d="M100.3,304.4c0.2-0.5,0.8-0.7,1.3-0.5s0.7,0.8,0.5,1.3s-0.8,0.7-1.3,0.5S100.1,304.9,100.3,304.4z"/>
	</g>
	<g>
		<path class="st1" d="M94.6,301.7c0.2-0.5,0.8-0.7,1.3-0.4c0.5,0.2,0.7,0.8,0.5,1.3s-0.8,0.7-1.3,0.5
			C94.5,302.8,94.3,302.2,94.6,301.7z"/>
	</g>
	<g>
		<path class="st1" d="M88.9,298.7c0.3-0.5,0.9-0.7,1.4-0.4s0.7,0.9,0.4,1.3c-0.3,0.5-0.9,0.7-1.4,0.4
			C88.8,299.8,88.6,299.2,88.9,298.7z"/>
	</g>
	<g>
		<path class="st1" d="M83.4,295.5c0.3-0.5,0.9-0.6,1.4-0.4c0.5,0.3,0.6,0.9,0.4,1.4c-0.3,0.5-0.9,0.6-1.4,0.4
			C83.2,296.6,83.1,296,83.4,295.5z"/>
	</g>
	<g>
		<path class="st1" d="M78,292.1c0.3-0.5,0.9-0.6,1.4-0.3s0.6,0.9,0.3,1.4c-0.3,0.5-0.9,0.6-1.4,0.3C77.8,293.2,77.7,292.6,78,292.1
			z"/>
	</g>
	<g>
		<path class="st1" d="M72.7,288.5c0.3-0.4,0.9-0.6,1.4-0.2c0.4,0.3,0.5,0.9,0.2,1.4s-0.9,0.6-1.4,0.2
			C72.5,289.5,72.4,288.9,72.7,288.5z"/>
	</g>
	<g>
		<path class="st1" d="M67.6,284.6c0.3-0.4,1-0.5,1.4-0.2s0.5,1,0.2,1.4s-1,0.5-1.4,0.2S67.3,285,67.6,284.6z"/>
	</g>
	<g>
		<path class="st1" d="M62.7,280.6c0.4-0.4,1-0.5,1.4-0.1c0.4,0.4,0.5,1,0.1,1.4s-1,0.5-1.4,0.1S62.3,281,62.7,280.6z"/>
	</g>
	<g>
		<path class="st1" d="M57.9,276.3c0.4-0.4,1-0.4,1.4,0s0.4,1,0.1,1.4c-0.4,0.4-1,0.4-1.4,0.1C57.6,277.4,57.5,276.7,57.9,276.3z"/>
	</g>
	<g>
		<path class="st1" d="M53.3,271.9c0.4-0.4,1-0.4,1.4,0s0.4,1,0,1.4s-1,0.4-1.4,0S52.9,272.3,53.3,271.9z"/>
	</g>
	<g>
		<path class="st1" d="M48.9,267.2c0.4-0.4,1-0.3,1.4,0c0.4,0.4,0.4,1-0.1,1.4c-0.4,0.4-1,0.4-1.4,0
			C48.5,268.2,48.5,267.6,48.9,267.2z"/>
	</g>
	<g>
		<path class="st1" d="M44.8,262.4c0.4-0.4,1.1-0.3,1.4,0.1c0.4,0.4,0.3,1-0.1,1.4s-1.1,0.3-1.4-0.1
			C44.3,263.4,44.3,262.8,44.8,262.4z"/>
	</g>
	<g>
		<path class="st1" d="M40.8,257.4c0.4-0.3,1.1-0.3,1.4,0.2c0.3,0.4,0.3,1.1-0.2,1.4c-0.4,0.3-1.1,0.3-1.4-0.2
			S40.3,257.8,40.8,257.4z"/>
	</g>
	<g>
		<path class="st1" d="M37,252.3c0.5-0.3,1.1-0.2,1.4,0.2c0.3,0.4,0.2,1.1-0.2,1.4c-0.4,0.3-1.1,0.2-1.4-0.2
			C36.4,253.2,36.5,252.6,37,252.3z"/>
	</g>
	<g>
		<path class="st1" d="M24,230.3c0.5-0.2,1.1,0,1.3,0.5s0,1.1-0.4,1.3s-1.1,0-1.3-0.5C23.3,231.1,23.5,230.5,24,230.3z"/>
	</g>
	<g>
		<path class="st1" d="M21.3,224.5c0.5-0.2,1.1,0,1.3,0.5s0,1.1-0.5,1.3s-1.1,0-1.3-0.5S20.8,224.7,21.3,224.5z"/>
	</g>
	<g>
		<path class="st1" d="M18.9,218.6c0.5-0.2,1.1,0.1,1.3,0.6s-0.1,1.1-0.6,1.3s-1.1,0-1.3-0.6C18.2,219.3,18.4,218.8,18.9,218.6z"/>
	</g>
	<g>
		<path class="st1" d="M16.8,212.6c0.5-0.2,1.1,0.1,1.3,0.6s-0.1,1.1-0.6,1.3s-1.1-0.1-1.3-0.6C16,213.3,16.3,212.7,16.8,212.6z"/>
	</g>
	<g>
		<path class="st1" d="M14.9,206.5c0.5-0.2,1.1,0.1,1.2,0.7c0.1,0.5-0.2,1.1-0.7,1.2c-0.5,0.2-1.1-0.1-1.2-0.7
			C14,207.2,14.3,206.6,14.9,206.5z"/>
	</g>
	<g>
		<path class="st1" d="M13.2,200.3c0.5-0.1,1.1,0.2,1.2,0.7c0.1,0.5-0.2,1.1-0.7,1.2s-1.1-0.2-1.2-0.7
			C12.3,201,12.7,200.4,13.2,200.3z"/>
	</g>
	<g>
		<path class="st1" d="M11.8,194.1c0.5-0.1,1.1,0.2,1.2,0.8c0.1,0.5-0.2,1.1-0.8,1.2c-0.5,0.1-1.1-0.2-1.2-0.8
			S11.2,194.2,11.8,194.1z"/>
	</g>
	<g>
		<path class="st1" d="M10.7,187.8c0.5-0.1,1.1,0.3,1.2,0.8c0.1,0.5-0.3,1.1-0.8,1.1c-0.5,0.1-1.1-0.3-1.2-0.8
			S10.1,187.9,10.7,187.8z"/>
	</g>
	<g>
		<path class="st1" d="M9.8,181.5c0.5-0.1,1,0.3,1.1,0.9c0.1,0.5-0.3,1-0.9,1.1c-0.5,0.1-1-0.3-1.1-0.9C8.9,182,9.3,181.5,9.8,181.5
			z"/>
	</g>
	<g>
		<path class="st1" d="M9.2,175.1c0.6,0,1,0.4,1.1,0.9c0,0.5-0.4,1-0.9,1.1c-0.6,0-1-0.4-1.1-0.9C8.2,175.6,8.6,175.1,9.2,175.1z"/>
	</g>
	<g>
		<path class="st1" d="M8.8,168.7c0.6,0,1,0.4,1,1c0,0.5-0.4,1-1,1s-1-0.4-1-1C7.8,169.2,8.3,168.7,8.8,168.7z"/>
	</g>
	<g>
		<path class="st1" d="M8.7,162.3c0.6,0,1,0.5,1,1s-0.4,1-1,1s-1-0.4-1-1C7.7,162.8,8.1,162.3,8.7,162.3z"/>
	</g>
	<g>
		<path class="st1" d="M8.9,156c0.6,0,1,0.5,1,1s-0.5,1-1,1c-0.6,0-1-0.5-1-1C7.9,156.4,8.3,155.9,8.9,156z"/>
	</g>
	<g>
		<path class="st1" d="M9.3,149.6c0.6,0,1,0.5,0.9,1.1c0,0.5-0.5,1-1.1,0.9s-1-0.5-0.9-1.1S8.8,149.5,9.3,149.6z"/>
	</g>
	<g>
		<path class="st1" d="M10,143.2c0.5,0.1,0.9,0.6,0.9,1.1c-0.1,0.5-0.6,0.9-1.1,0.9c-0.5-0.1-0.9-0.6-0.9-1.1
			C9,143.5,9.5,143.2,10,143.2z"/>
	</g>
	<g>
		<path class="st1" d="M11,136.9c0.5,0.1,0.9,0.6,0.8,1.1c-0.1,0.5-0.6,0.9-1.2,0.8c-0.6-0.1-0.9-0.6-0.8-1.1S10.4,136.8,11,136.9z"
			/>
	</g>
	<g>
		<path class="st1" d="M12.1,130.6c0.5,0.1,0.9,0.6,0.8,1.2c-0.1,0.5-0.6,0.9-1.2,0.8c-0.5-0.1-0.9-0.6-0.8-1.2
			C11,130.9,11.6,130.5,12.1,130.6z"/>
	</g>
	<g>
		<path class="st1" d="M13.6,124.4c0.5,0.1,0.9,0.7,0.7,1.2c-0.1,0.5-0.7,0.9-1.2,0.7s-0.9-0.7-0.7-1.2
			C12.5,124.6,13.1,124.3,13.6,124.4z"/>
	</g>
	<g>
		<path class="st1" d="M15.4,118.3c0.5,0.2,0.8,0.7,0.7,1.2c-0.2,0.5-0.7,0.8-1.2,0.7c-0.5-0.2-0.8-0.7-0.7-1.2
			C14.3,118.4,14.8,118.1,15.4,118.3z"/>
	</g>
	<g>
		<path class="st1" d="M17.4,112.2c0.5,0.2,0.8,0.8,0.6,1.3s-0.7,0.8-1.3,0.6c-0.5-0.2-0.8-0.7-0.6-1.3
			C16.3,112.3,16.8,112,17.4,112.2z"/>
	</g>
	<g>
		<path class="st1" d="M19.6,106.2c0.5,0.2,0.8,0.8,0.6,1.3s-0.8,0.8-1.3,0.6s-0.8-0.8-0.6-1.3S19.1,106,19.6,106.2z"/>
	</g>
	<g>
		<path class="st1" d="M22.1,100.3c0.5,0.2,0.7,0.8,0.5,1.3s-0.8,0.7-1.3,0.5s-0.7-0.8-0.5-1.3S21.6,100.1,22.1,100.3z"/>
	</g>
	<g>
		<path class="st1" d="M24.8,94.6c0.5,0.2,0.7,0.8,0.4,1.3c-0.2,0.5-0.8,0.7-1.3,0.5s-0.7-0.8-0.5-1.3
			C23.7,94.5,24.3,94.3,24.8,94.6z"/>
	</g>
	<g>
		<path class="st1" d="M27.7,88.9c0.5,0.3,0.7,0.9,0.4,1.4s-0.9,0.7-1.3,0.4c-0.5-0.3-0.7-0.9-0.4-1.4
			C26.6,88.8,27.2,88.6,27.7,88.9z"/>
	</g>
	<g>
		<path class="st1" d="M30.9,83.4c0.5,0.3,0.6,0.9,0.4,1.4c-0.3,0.5-0.9,0.6-1.4,0.4c-0.5-0.3-0.6-0.9-0.4-1.4
			C29.8,83.2,30.5,83.1,30.9,83.4z"/>
	</g>
	<g>
		<path class="st1" d="M34.4,78c0.5,0.3,0.6,0.9,0.3,1.4s-0.9,0.6-1.4,0.3c-0.5-0.3-0.6-0.9-0.3-1.4S33.9,77.7,34.4,78z"/>
	</g>
	<g>
		<path class="st1" d="M38,72.7c0.4,0.3,0.6,0.9,0.2,1.4c-0.3,0.4-0.9,0.5-1.4,0.2s-0.6-0.9-0.2-1.4C36.9,72.5,37.6,72.4,38,72.7z"
			/>
	</g>
	<g>
		<path class="st1" d="M41.8,67.6c0.4,0.3,0.5,1,0.2,1.4s-1,0.5-1.4,0.2s-0.5-1-0.2-1.4S41.4,67.3,41.8,67.6z"/>
	</g>
	<g>
		<path class="st1" d="M45.9,62.7c0.4,0.4,0.5,1,0.1,1.4s-1,0.5-1.4,0.1c-0.4-0.4-0.5-1-0.1-1.4C44.8,62.4,45.5,62.3,45.9,62.7z"/>
	</g>
	<g>
		<path class="st1" d="M50.1,57.9c0.4,0.4,0.4,1,0,1.4s-1,0.4-1.4,0.1c-0.4-0.4-0.4-1-0.1-1.4C49.1,57.6,49.7,57.5,50.1,57.9z"/>
	</g>
	<g>
		<path class="st1" d="M54.6,53.3c0.4,0.4,0.4,1,0,1.4s-1,0.4-1.4,0s-0.4-1,0-1.4S54.2,52.9,54.6,53.3z"/>
	</g>
	<g>
		<path class="st1" d="M59.2,48.9c0.4,0.4,0.3,1,0,1.4c-0.4,0.4-1,0.4-1.4-0.1s-0.4-1,0-1.4C58.2,48.5,58.9,48.5,59.2,48.9z"/>
	</g>
	<g>
		<path class="st1" d="M64.1,44.8c0.4,0.4,0.3,1.1-0.1,1.4s-1,0.3-1.4-0.1s-0.3-1.1,0.1-1.4C63.1,44.3,63.7,44.3,64.1,44.8z"/>
	</g>
	<g>
		<path class="st1" d="M69,40.8c0.3,0.4,0.3,1.1-0.2,1.4c-0.4,0.3-1.1,0.3-1.4-0.2c-0.3-0.4-0.3-1.1,0.2-1.4
			C68.1,40.2,68.7,40.3,69,40.8z"/>
	</g>
	<g>
		<path class="st1" d="M74.2,37c0.3,0.5,0.2,1.1-0.2,1.4s-1.1,0.2-1.4-0.2s-0.2-1.1,0.2-1.4C73.2,36.4,73.9,36.5,74.2,37z"/>
	</g>
	<g>
		<path class="st1" d="M79.5,33.4c0.3,0.5,0.2,1.1-0.3,1.4s-1.1,0.2-1.4-0.3s-0.2-1.1,0.3-1.4C78.5,32.8,79.2,32.9,79.5,33.4z"/>
	</g>
	<g>
		<path class="st1" d="M84.9,30c0.3,0.5,0.1,1.1-0.4,1.4s-1.1,0.1-1.4-0.3c-0.3-0.5-0.1-1.1,0.3-1.4C84,29.4,84.6,29.5,84.9,30z"/>
	</g>
	<g>
		<path class="st1" d="M90.4,26.9c0.3,0.5,0.1,1.1-0.4,1.4s-1.1,0.1-1.3-0.4s-0.1-1.1,0.4-1.4S90.2,26.4,90.4,26.9z"/>
	</g>
	<g>
		<path class="st1" d="M96.2,24c0.2,0.5,0,1.1-0.5,1.3s-1.1,0-1.3-0.4c-0.2-0.5,0-1.1,0.5-1.3S95.9,23.5,96.2,24z"/>
	</g>
	<g>
		<path class="st1" d="M102,21.3c0.2,0.5,0,1.1-0.5,1.3s-1.1,0-1.3-0.5s0-1.1,0.5-1.3S101.7,20.8,102,21.3z"/>
	</g>
	<g>
		<path class="st1" d="M107.9,18.9c0.2,0.5-0.1,1.1-0.6,1.3s-1.1-0.1-1.3-0.6s0-1.1,0.6-1.3C107.1,18.2,107.7,18.4,107.9,18.9z"/>
	</g>
	<g>
		<path class="st1" d="M113.9,16.8c0.2,0.5-0.1,1.1-0.6,1.3s-1.1-0.1-1.3-0.6s0.1-1.1,0.6-1.3S113.7,16.3,113.9,16.8z"/>
	</g>
	<g>
		<path class="st1" d="M120,14.9c0.2,0.5-0.1,1.1-0.7,1.2c-0.5,0.1-1.1-0.2-1.2-0.7c-0.2-0.5,0.1-1.1,0.7-1.2
			C119.3,14,119.8,14.3,120,14.9z"/>
	</g>
	<g>
		<path class="st1" d="M126.1,13.2c0.1,0.5-0.2,1.1-0.7,1.2c-0.5,0.1-1.1-0.2-1.2-0.7s0.2-1.1,0.7-1.2
			C125.5,12.3,126,12.6,126.1,13.2z"/>
	</g>
	<g>
		<path class="st1" d="M132.4,11.8c0.1,0.5-0.2,1.1-0.8,1.2c-0.5,0.1-1.1-0.2-1.2-0.8s0.2-1.1,0.8-1.2
			C131.7,10.9,132.3,11.2,132.4,11.8z"/>
	</g>
	<g>
		<path class="st1" d="M138.7,10.7c0.1,0.5-0.3,1.1-0.8,1.2c-0.5,0.1-1.1-0.3-1.1-0.8c-0.1-0.5,0.3-1.1,0.8-1.2
			S138.6,10.1,138.7,10.7z"/>
	</g>
	<g>
		<path class="st1" d="M145,9.8c0.1,0.5-0.3,1-0.9,1.1s-1-0.3-1.1-0.9c-0.1-0.5,0.3-1,0.9-1.1S144.9,9.2,145,9.8z"/>
	</g>
	<g>
		<path class="st1" d="M151.4,9.2c0,0.6-0.4,1-0.9,1.1c-0.5,0-1-0.4-1.1-0.9c0-0.6,0.4-1,0.9-1.1S151.3,8.6,151.4,9.2z"/>
	</g>
	<g>
		<path class="st1" d="M176.9,9.3c0,0.6-0.5,1-1.1,0.9c-0.5,0-1-0.5-0.9-1.1c0-0.6,0.5-1,1.1-0.9C176.5,8.3,176.9,8.8,176.9,9.3z"/>
	</g>
	<g>
		<path class="st1" d="M183.2,10c-0.1,0.5-0.6,0.9-1.1,0.9c-0.5-0.1-0.9-0.6-0.9-1.1c0.1-0.5,0.6-0.9,1.1-0.9
			C182.9,9,183.3,9.5,183.2,10z"/>
	</g>
	<g>
		<path class="st1" d="M189.5,11c-0.1,0.5-0.6,0.9-1.1,0.8c-0.5-0.1-0.9-0.6-0.8-1.2c0.1-0.6,0.6-0.9,1.1-0.8
			C189.3,9.9,189.6,10.4,189.5,11z"/>
	</g>
	<g>
		<path class="st1" d="M195.8,12.1c-0.1,0.5-0.6,0.9-1.2,0.8c-0.5-0.1-0.9-0.6-0.8-1.2c0.1-0.5,0.6-0.9,1.2-0.8
			C195.6,11,195.9,11.6,195.8,12.1z"/>
	</g>
	<g>
		<path class="st1" d="M202,13.6c-0.1,0.5-0.7,0.9-1.2,0.7c-0.5-0.1-0.9-0.7-0.7-1.2c0.1-0.5,0.7-0.9,1.2-0.7
			C201.8,12.5,202.2,13.1,202,13.6z"/>
	</g>
	<g>
		<path class="st1" d="M208.2,15.4c-0.2,0.5-0.7,0.8-1.2,0.7c-0.5-0.2-0.8-0.7-0.7-1.2c0.2-0.5,0.7-0.8,1.2-0.7
			S208.3,14.8,208.2,15.4z"/>
	</g>
	<g>
		<path class="st1" d="M214.2,17.4c-0.2,0.5-0.8,0.8-1.3,0.6s-0.8-0.7-0.6-1.3c0.2-0.5,0.7-0.8,1.3-0.6
			C214.2,16.3,214.4,16.8,214.2,17.4z"/>
	</g>
	<g>
		<path class="st1" d="M220.2,19.6c-0.2,0.5-0.8,0.8-1.3,0.6s-0.8-0.8-0.6-1.3s0.8-0.8,1.3-0.6C220.2,18.5,220.4,19.1,220.2,19.6z"
			/>
	</g>
	<g>
		<path class="st1" d="M226.1,22.1c-0.2,0.5-0.8,0.7-1.3,0.5s-0.7-0.8-0.5-1.3s0.8-0.7,1.3-0.5S226.3,21.6,226.1,22.1z"/>
	</g>
	<g>
		<path class="st1" d="M231.9,24.8c-0.2,0.5-0.8,0.7-1.3,0.4c-0.5-0.2-0.7-0.8-0.5-1.3s0.8-0.7,1.3-0.5
			C232,23.7,232.2,24.3,231.9,24.8z"/>
	</g>
	<g>
		<path class="st1" d="M237.6,27.7c-0.3,0.5-0.9,0.7-1.4,0.4c-0.5-0.3-0.7-0.9-0.4-1.3c0.3-0.5,0.9-0.7,1.4-0.4
			C237.7,26.6,237.8,27.2,237.6,27.7z"/>
	</g>
	<g>
		<path class="st1" d="M243.1,30.9c-0.3,0.5-0.9,0.6-1.4,0.4c-0.5-0.3-0.6-0.9-0.4-1.4s0.9-0.6,1.4-0.4
			C243.2,29.8,243.4,30.5,243.1,30.9z"/>
	</g>
	<g>
		<path class="st1" d="M248.5,34.4c-0.3,0.5-0.9,0.6-1.4,0.3s-0.6-0.9-0.3-1.4s0.9-0.6,1.4-0.3S248.8,33.9,248.5,34.4z"/>
	</g>
	<g>
		<path class="st1" d="M253.7,38c-0.3,0.4-0.9,0.6-1.4,0.2c-0.4-0.3-0.5-0.9-0.2-1.4s0.9-0.6,1.4-0.2C254,36.9,254.1,37.6,253.7,38z
			"/>
	</g>
	<g>
		<path class="st1" d="M258.8,41.8c-0.3,0.4-1,0.5-1.4,0.2s-0.5-1-0.2-1.4s1-0.5,1.4-0.2C259.1,40.8,259.2,41.4,258.8,41.8z"/>
	</g>
	<g>
		<path class="st1" d="M263.8,45.9c-0.4,0.4-1,0.5-1.4,0.1s-0.5-1-0.1-1.4s1-0.5,1.4-0.1S264.1,45.5,263.8,45.9z"/>
	</g>
	<g>
		<path class="st1" d="M268.5,50.1c-0.4,0.4-1,0.4-1.4,0s-0.4-1-0.1-1.4c0.4-0.4,1-0.4,1.4-0.1C268.9,49.1,268.9,49.7,268.5,50.1z"
			/>
	</g>
	<g>
		<path class="st1" d="M273.1,54.6c-0.4,0.4-1,0.4-1.4,0s-0.4-1,0-1.4s1-0.4,1.4,0S273.5,54.2,273.1,54.6z"/>
	</g>
	<g>
		<path class="st1" d="M277.5,59.2c-0.4,0.4-1,0.3-1.4,0c-0.4-0.4-0.4-1,0.1-1.4c0.4-0.4,1-0.4,1.4,0S277.9,58.9,277.5,59.2z"/>
	</g>
	<g>
		<path class="st1" d="M281.7,64.1c-0.4,0.4-1.1,0.3-1.4-0.1c-0.4-0.4-0.3-1,0.1-1.4s1.1-0.3,1.4,0.1S282.1,63.7,281.7,64.1z"/>
	</g>
	<g>
		<path class="st1" d="M285.7,69c-0.4,0.3-1.1,0.3-1.4-0.2c-0.3-0.4-0.3-1.1,0.2-1.4s1.1-0.3,1.4,0.2S286.1,68.7,285.7,69z"/>
	</g>
	<g>
		<path class="st1" d="M289.5,74.2c-0.5,0.3-1.1,0.2-1.4-0.2c-0.3-0.4-0.2-1.1,0.2-1.4c0.4-0.3,1.1-0.2,1.4,0.2
			C290.1,73.2,289.9,73.9,289.5,74.2z"/>
	</g>
	<g>
		<path class="st1" d="M293.1,79.5c-0.5,0.3-1.1,0.2-1.4-0.3s-0.2-1.1,0.3-1.4s1.1-0.2,1.4,0.3C293.7,78.5,293.5,79.2,293.1,79.5z"
			/>
	</g>
	<g>
		<path class="st1" d="M296.4,84.9c-0.5,0.3-1.1,0.1-1.4-0.4s-0.1-1.1,0.3-1.4c0.5-0.3,1.1-0.1,1.4,0.3
			C297.1,84,296.9,84.6,296.4,84.9z"/>
	</g>
	<g>
		<path class="st1" d="M299.6,90.4c-0.5,0.3-1.1,0.1-1.4-0.4s-0.1-1.1,0.4-1.3c0.5-0.3,1.1-0.1,1.4,0.4S300.1,90.2,299.6,90.4z"/>
	</g>
	<g>
		<path class="st1" d="M302.5,96.2c-0.5,0.2-1.1,0-1.3-0.5s0-1.1,0.4-1.3c0.5-0.2,1.1,0,1.3,0.5S303,95.9,302.5,96.2z"/>
	</g>
	<g>
		<path class="st1" d="M305.1,102c-0.5,0.2-1.1,0-1.3-0.5c-0.2-0.5,0-1.1,0.5-1.3s1.1,0,1.3,0.5S305.6,101.7,305.1,102z"/>
	</g>
	<g>
		<path class="st1" d="M307.5,107.9c-0.5,0.2-1.1-0.1-1.3-0.6c-0.2-0.5,0.1-1.1,0.6-1.3s1.1,0,1.3,0.6S308,107.7,307.5,107.9z"/>
	</g>
	<g>
		<path class="st1" d="M309.7,113.9c-0.5,0.2-1.1-0.1-1.3-0.6s0.1-1.1,0.6-1.3s1.1,0.1,1.3,0.6S310.2,113.7,309.7,113.9z"/>
	</g>
	<g>
		<path class="st1" d="M311.6,120c-0.5,0.2-1.1-0.1-1.2-0.7c-0.1-0.5,0.2-1.1,0.7-1.2c0.5-0.2,1.1,0.1,1.2,0.7
			C312.4,119.3,312.1,119.8,311.6,120z"/>
	</g>
	<g>
		<path class="st1" d="M313.3,126.1c-0.5,0.1-1.1-0.2-1.2-0.7s0.2-1.1,0.7-1.2s1.1,0.2,1.2,0.7C314.2,125.5,313.8,126,313.3,126.1z"
			/>
	</g>
	<g>
		<path class="st1" d="M314.7,132.4c-0.5,0.1-1.1-0.2-1.2-0.8c-0.1-0.5,0.2-1.1,0.8-1.2s1.1,0.2,1.2,0.8
			C315.6,131.7,315.2,132.3,314.7,132.4z"/>
	</g>
	<g>
		<path class="st1" d="M315.8,138.7c-0.5,0.1-1.1-0.3-1.2-0.8s0.3-1.1,0.8-1.1c0.5-0.1,1.1,0.3,1.2,0.8S316.3,138.6,315.8,138.7z"/>
	</g>
	<g>
		<path class="st1" d="M316.7,145c-0.5,0.1-1-0.3-1.1-0.9s0.3-1,0.9-1.1c0.5-0.1,1,0.3,1.1,0.9C317.6,144.4,317.2,144.9,316.7,145z"
			/>
	</g>
	<g>
		<path class="st1" d="M317.3,151.4c-0.6,0-1-0.4-1.1-0.9c0-0.5,0.4-1,0.9-1.1c0.6,0,1,0.4,1.1,0.9S317.8,151.3,317.3,151.4z"/>
	</g>
	<g>
		<path class="st1" d="M317.6,157.7c-0.6,0-1-0.4-1-1c0-0.5,0.4-1,1-1s1,0.4,1,1C318.6,157.2,318.2,157.7,317.6,157.7z"/>
	</g>
	<g>
		<path class="st1" d="M317.8,164.1c-0.6,0-1-0.5-1-1s0.4-1,1-1s1,0.4,1,1C318.8,163.7,318.3,164.1,317.8,164.1z"/>
	</g>
</g>
<g id="Path_5195" transform="translate(101 -21150.625)">
	<path class="st1" d="M62.3,21152.6c-4.1,0-7.5,3.4-7.5,7.5s3.4,7.5,7.5,7.5s7.5-3.4,7.5-7.5S66.4,21152.6,62.3,21152.6
		 M62.3,21150.6c5.2,0,9.5,4.3,9.5,9.5s-4.3,9.5-9.5,9.5s-9.5-4.3-9.5-9.5S57.1,21150.6,62.3,21150.6z"/>
</g>
<g id="Ellipse_1922" transform="translate(-32.281 -20919)">
	<path class="st1" d="M62.3,21170.6c-5.2,0-9.5-4.3-9.5-9.5s4.3-9.5,9.5-9.5s9.5,4.3,9.5,9.5S67.5,21170.6,62.3,21170.6z
		 M62.3,21153.6c-4.1,0-7.5,3.4-7.5,7.5s3.4,7.5,7.5,7.5s7.5-3.4,7.5-7.5S66.4,21153.6,62.3,21153.6z"/>
</g>
<g id="Path_5196" transform="translate(234.068 -20919)">
	<path class="st1" d="M62.3,21153.6c-4.1,0-7.5,3.4-7.5,7.5s3.4,7.5,7.5,7.5s7.5-3.4,7.5-7.5S66.4,21153.6,62.3,21153.6
		 M62.3,21151.6c5.2,0,9.5,4.3,9.5,9.5s-4.3,9.5-9.5,9.5s-9.5-4.3-9.5-9.5S57.1,21151.6,62.3,21151.6z"/>
</g>
</svg>
