<?xml version="1.0" standalone="no"?>
<!DOCTYPE svg PUBLIC "-//W3C//DTD SVG 20010904//EN"
 "http://www.w3.org/TR/2001/REC-SVG-20010904/DTD/svg10.dtd">
<svg version="1.0" xmlns="http://www.w3.org/2000/svg"
 width="700.000000pt" height="700.000000pt" viewBox="0 0 700.000000 700.000000"
 preserveAspectRatio="xMidYMid meet">
<metadata>
Created by potrace 1.11, written by Peter Selinger 2001-2013
</metadata>
<g transform="translate(0.000000,700.000000) scale(0.100000,-0.100000)"
fill="#000000" stroke="none">
<path d="M3338 6995 c-2 -2 -48 -6 -103 -9 -55 -3 -111 -8 -125 -10 -14 -3
-47 -8 -75 -11 -91 -12 -110 -15 -135 -20 -14 -3 -38 -8 -55 -10 -16 -3 -37
-8 -45 -10 -8 -2 -31 -7 -50 -10 -55 -9 -216 -53 -320 -87 -112 -36 -340 -126
-357 -140 -7 -6 -13 -8 -13 -5 0 8 -273 -132 -355 -183 -528 -322 -960 -767
-1249 -1285 -67 -121 -156 -303 -156 -320 0 -8 -4 -15 -10 -15 -5 0 -10 -7
-10 -15 0 -8 -9 -34 -19 -58 -47 -104 -143 -409 -165 -522 -8 -37 -14 -68 -21
-97 -3 -13 -7 -34 -10 -48 -23 -147 -35 -236 -40 -281 -2 -30 -7 -79 -10 -110
-8 -74 -8 -385 -1 -479 9 -115 18 -202 21 -221 2 -10 6 -39 10 -66 3 -26 10
-68 15 -93 6 -25 12 -56 14 -70 4 -24 32 -150 40 -180 85 -323 210 -629 367
-896 46 -79 175 -278 200 -308 5 -6 56 -69 113 -141 451 -563 1091 -979 1800
-1170 93 -25 262 -63 313 -70 15 -2 44 -6 63 -9 420 -71 957 -46 1385 64 371
95 736 254 1045 455 247 160 507 381 689 586 113 127 123 139 194 232 400 524
648 1163 704 1817 15 164 6 667 -12 723 -2 7 -6 36 -10 66 -3 29 -7 56 -9 60
-2 3 -7 29 -11 57 -8 64 -56 273 -88 384 -74 254 -204 554 -340 784 -23 39
-45 73 -49 74 -5 2 -8 8 -8 13 0 26 -255 370 -338 458 -208 219 -289 295 -465
437 -406 328 -991 590 -1527 683 -163 29 -150 27 -340 47 -56 6 -447 13 -452
9z m357 -1099 c220 -18 480 -76 645 -144 14 -5 50 -20 80 -32 122 -49 416
-209 440 -239 3 -4 19 -15 35 -25 101 -64 307 -251 425 -386 37 -42 163 -211
204 -273 52 -80 168 -304 207 -402 92 -232 147 -472 165 -730 39 -531 -98
-1048 -397 -1501 -106 -161 -302 -381 -432 -487 -21 -18 -53 -45 -70 -60 -18
-15 -92 -68 -166 -117 -399 -266 -878 -411 -1344 -404 -111 1 -278 12 -307 19
-8 2 -33 6 -55 10 -737 109 -1411 595 -1758 1268 -120 232 -213 517 -243 742
-3 28 -8 59 -10 70 -23 117 -22 388 1 595 23 211 101 484 196 688 22 46 39 85
39 87 0 16 161 279 207 340 13 17 27 35 31 40 48 62 89 111 152 178 118 126
183 184 325 291 313 236 743 414 1090 452 28 3 56 7 64 10 8 3 73 7 145 11 72
3 132 6 133 7 3 2 127 -3 198 -8z"/>
<path d="M2770 4451 c-111 -30 -225 -96 -296 -173 -87 -93 -166 -261 -192
-405 -25 -144 -10 -320 40 -463 65 -184 150 -312 318 -480 202 -202 387 -330
725 -501 l140 -71 100 49 c55 27 127 64 160 83 33 18 74 41 90 50 272 152 541
386 680 590 139 205 198 392 190 605 -5 130 -6 138 -35 235 -69 234 -224 400
-440 471 -63 20 -94 24 -200 24 -112 0 -133 -3 -204 -29 -137 -49 -244 -126
-321 -230 l-29 -38 -30 38 c-137 176 -316 265 -531 263 -62 0 -124 -7 -165
-18z"/>
</g>
</svg>
