<svg xmlns="http://www.w3.org/2000/svg" viewBox="0 0 29 29"><defs><style>.cls-1{fill:#8f7c76;}.cls-2{fill:none;}</style></defs><title>Navi_Konto</title><g id="Layer_2" data-name="Layer 2"><g id="Layer_1-2" data-name="Layer 1"><path id="Path_5198" data-name="Path 5198" class="cls-1" d="M14.5,0A14.5,14.5,0,1,0,29,14.5,14.52,14.52,0,0,0,14.5,0ZM7.07,24.53A7.51,7.51,0,0,1,14.5,18h0a7.51,7.51,0,0,1,7.43,6.53,12.41,12.41,0,0,1-14.86,0ZM10,11.5a4.5,4.5,0,0,1,9,0h0A4.49,4.49,0,0,1,14.5,16h0A4.49,4.49,0,0,1,10,11.5ZM23.64,23a9.5,9.5,0,0,0-5.37-6.2,6.53,6.53,0,0,0,2.66-4.36A7.28,7.28,0,0,0,21,11.5a5.52,5.52,0,0,0-.06-.81A6.5,6.5,0,0,0,8,11.5H8a6.5,6.5,0,0,0,2.73,5.29A9.52,9.52,0,0,0,5.35,23a12.5,12.5,0,1,1,18.3,0Z"/><rect class="cls-2" width="29" height="29"/></g></g></svg>