<svg xmlns="http://www.w3.org/2000/svg" viewBox="0 0 29 29"><defs><style>.cls-1{fill:#2cb250;}.cls-2{fill:#fb9196;}.cls-3{fill:#2bd4cf;}.cls-4{fill:#f97c22;}.cls-5{fill:#2e7979;}.cls-6{fill:#ffd664;}.cls-7{fill:none;}</style></defs><title>Navi_Bonjour</title><g id="Layer_2" data-name="Layer 2"><g id="Layer_1-2" data-name="Layer 1"><path id="Subtraction_107" data-name="Subtraction 107" class="cls-1" d="M12.23,9.63A23.91,23.91,0,0,1,10.63,7,5.72,5.72,0,0,1,9.9,4.63a4.63,4.63,0,0,1,9.26,0h0A5.72,5.72,0,0,1,18.43,7a20.84,20.84,0,0,1-1.6,2.64,5.27,5.27,0,0,0-1.1-.37,5.42,5.42,0,0,0-3.5.38Z"/><path id="Subtraction_110" data-name="Subtraction 110" class="cls-2" d="M14.53,29A4.62,4.62,0,0,1,9.9,24.39h0A5.72,5.72,0,0,1,10.63,22a21,21,0,0,1,1.6-2.65,5.81,5.81,0,0,0,1.11.38,5.66,5.66,0,0,0,2.39,0,5.3,5.3,0,0,0,1.1-.38A23,23,0,0,1,18.43,22a5.72,5.72,0,0,1,.73,2.34A4.63,4.63,0,0,1,14.54,29Z"/><path id="Subtraction_108" data-name="Subtraction 108" class="cls-3" d="M22,14.14c-.63,0-1.33,0-2.08-.08a5.41,5.41,0,0,0-1.42-3.23,6.56,6.56,0,0,0-.89-.77,25.47,25.47,0,0,1,1.49-2.71,5.75,5.75,0,0,1,1.67-1.8,4.63,4.63,0,0,1,4.63,8h0A7.23,7.23,0,0,1,22,14.14Z"/><path id="Subtraction_111" data-name="Subtraction 111" class="cls-4" d="M6,24.07H6a4.63,4.63,0,0,1-2.32-8.64,7.36,7.36,0,0,1,3.4-.57c.64,0,1.35,0,2.1.09a5.46,5.46,0,0,0,2.29,4A20.59,20.59,0,0,1,10,21.64a5.63,5.63,0,0,1-1.66,1.81A4.67,4.67,0,0,1,6,24.07Z"/><path id="Subtraction_109" data-name="Subtraction 109" class="cls-5" d="M23.07,24.07a4.67,4.67,0,0,1-2.31-.62,5.86,5.86,0,0,1-1.67-1.8,25.47,25.47,0,0,1-1.49-2.71,5.39,5.39,0,0,0,2.31-4c.75-.06,1.45-.09,2.08-.09a7.23,7.23,0,0,1,3.4.57,4.63,4.63,0,0,1-2.32,8.64Z"/><path id="Subtraction_112" data-name="Subtraction 112" class="cls-6" d="M7.07,14.14a7.19,7.19,0,0,1-3.4-.57A4.62,4.62,0,1,1,8.19,5.5l.1.06A5.75,5.75,0,0,1,10,7.36a23.18,23.18,0,0,1,1.5,2.72,5.45,5.45,0,0,0-2.29,4C8.41,14.11,7.7,14.14,7.07,14.14Z"/><rect class="cls-7" width="29" height="29"/></g></g></svg>