<svg xmlns="http://www.w3.org/2000/svg" width="29.462" height="28.084" viewBox="0 0 29.462 28.084">
  <g id="Group_5699" data-name="Group 5699" transform="translate(14527 9505.625)">
    <g id="Group_4630" data-name="Group 4630" transform="translate(-14527 -9505.625)">
      <g id="Group_4629" data-name="Group 4629" transform="translate(2.311 3.25)">
        <g id="Ellipse_1247" data-name="Ellipse 1247" transform="translate(6.932 6.932)" fill="none" stroke="#8f7c76" stroke-width="2">
          <circle cx="5.488" cy="5.488" r="5.488" stroke="none"/>
          <circle cx="5.488" cy="5.488" r="4.488" fill="none"/>
        </g>
        <g id="Ellipse_1248" data-name="Ellipse 1248" fill="none" stroke="#8f7c76" stroke-width="2">
          <ellipse cx="12.42" cy="12.417" rx="12.42" ry="12.417" stroke="none"/>
          <ellipse cx="12.42" cy="12.417" rx="11.42" ry="11.417" fill="none"/>
        </g>
      </g>
      <g id="Ellipse_1249" data-name="Ellipse 1249" transform="translate(10.398)" fill="#f0f0ed" stroke="#8f7c76" stroke-width="2">
        <ellipse cx="4.333" cy="4.333" rx="4.333" ry="4.333" stroke="none"/>
        <ellipse cx="4.333" cy="4.333" rx="3.333" ry="3.333" fill="none"/>
      </g>
      <g id="Group_4628" data-name="Group 4628" transform="translate(0 17.692)">
        <g id="Ellipse_1250" data-name="Ellipse 1250" fill="#f0f0ed" stroke="#8f7c76" stroke-width="2">
          <ellipse cx="4.333" cy="4.333" rx="4.333" ry="4.333" stroke="none"/>
          <ellipse cx="4.333" cy="4.333" rx="3.333" ry="3.333" fill="none"/>
        </g>
        <g id="Path_4362" data-name="Path 4362" transform="translate(20.797)" fill="#f0f0ed">
          <path d="M 4.332676887512207 7.665356159210205 C 2.495026826858521 7.665356159210205 0.9999969005584717 6.170325756072998 0.9999969005584717 4.332675933837891 C 0.9999969005584717 2.495025873184204 2.495026826858521 0.9999959468841553 4.332676887512207 0.9999959468841553 C 6.170326709747314 0.9999959468841553 7.665357112884521 2.495025873184204 7.665357112884521 4.332675933837891 C 7.665357112884521 6.170325756072998 6.170326709747314 7.665356159210205 4.332676887512207 7.665356159210205 Z" stroke="none"/>
          <path d="M 4.332676887512207 1.999995708465576 C 3.046436786651611 1.999995708465576 1.999996662139893 3.046435832977295 1.999996662139893 4.332675933837891 C 1.999996662139893 5.618916034698486 3.046436786651611 6.665355682373047 4.332676887512207 6.665355682373047 C 5.618916988372803 6.665355682373047 6.665356636047363 5.618916034698486 6.665356636047363 4.332675933837891 C 6.665356636047363 3.046435832977295 5.618916988372803 1.999995708465576 4.332676887512207 1.999995708465576 M 4.332676887512207 -3.814697265625e-06 C 6.725546836853027 -3.814697265625e-06 8.665356636047363 1.93980598449707 8.665356636047363 4.332675933837891 C 8.665356636047363 6.725545883178711 6.725546836853027 8.665355682373047 4.332676887512207 8.665355682373047 C 1.939806938171387 8.665355682373047 -2.86102294921875e-06 6.725545883178711 -2.86102294921875e-06 4.332675933837891 C -2.86102294921875e-06 1.93980598449707 1.939806938171387 -3.814697265625e-06 4.332676887512207 -3.814697265625e-06 Z" stroke="none" fill="#8f7c76"/>
        </g>
      </g>
    </g>
  </g>
</svg>
