<svg xmlns="http://www.w3.org/2000/svg" viewBox="0 0 29 29"><defs><style>.cls-1{fill:none;}.cls-2{fill:#8f7c76;}</style></defs><title>Navi_Datenschutz</title><g id="Layer_2" data-name="Layer 2"><g id="Layer_1-2" data-name="Layer 1"><g id="Group_5827" data-name="Group 5827"><g id="Rectangle_2271" data-name="Rectangle 2271"><rect class="cls-1" x="4" y="9" width="21" height="20" rx="3"/><path class="cls-2" d="M22,29H7a3,3,0,0,1-3-3V12A3,3,0,0,1,7,9H22a3,3,0,0,1,3,3V26A3,3,0,0,1,22,29ZM7,11a1,1,0,0,0-1,1V26a1,1,0,0,0,1,1H22a1,1,0,0,0,1-1V12a1,1,0,0,0-1-1Z"/></g><g id="Rectangle_2272" data-name="Rectangle 2272"><path class="cls-1" d="M14.5,0h0A6.5,6.5,0,0,1,21,6.5V11H8V6.5A6.5,6.5,0,0,1,14.5,0Z"/><path class="cls-2" d="M19.08,11H9.92A1.92,1.92,0,0,1,8,9.08V6.5a6.5,6.5,0,0,1,13,0V9.08A1.92,1.92,0,0,1,19.08,11ZM10,9h9V6.5a4.5,4.5,0,0,0-9,0Z"/></g><circle id="Ellipse_1927" data-name="Ellipse 1927" class="cls-2" cx="14.5" cy="17.5" r="2.5"/><path id="Path_5199" data-name="Path 5199" class="cls-2" d="M13.83,17.88h1.34l2.12,6.69H11.71Z"/></g><rect class="cls-1" width="29" height="29"/></g></g></svg>