<svg xmlns="http://www.w3.org/2000/svg" viewBox="0 0 29 29.14"><defs><style>.cls-1{fill:none;}.cls-2{fill:#8f7c76;}</style></defs><title>Navi_Nachfrage</title><g id="Layer_2" data-name="Layer 2"><g id="Layer_1-2" data-name="Layer 1"><g id="Group_5795" data-name="Group 5795"><g id="Ellipse_1248" data-name="Ellipse 1248"><circle class="cls-1" cx="14.5" cy="16.81" r="11.81"/><path class="cls-2" d="M14.5,28.62A11.81,11.81,0,1,1,26.31,16.81,11.83,11.83,0,0,1,14.5,28.62Zm0-21.56a9.75,9.75,0,1,0,9.76,9.75A9.76,9.76,0,0,0,14.5,7.06Z"/></g><path class="cls-2" d="M3.21,29.14a1,1,0,0,1-.73-.3,1,1,0,0,1,0-1.46L5.56,24.3A1,1,0,0,1,7,24.3a1,1,0,0,1,0,1.46L3.93,28.84A1,1,0,0,1,3.21,29.14Z"/><path class="cls-2" d="M25.8,29.14a1,1,0,0,1-.73-.3L22,25.76a1,1,0,0,1,0-1.46,1,1,0,0,1,1.45,0l3.08,3.08a1,1,0,0,1,0,1.46A1,1,0,0,1,25.8,29.14Z"/><g id="Rectangle_2274" data-name="Rectangle 2274"><path class="cls-1" d="M1.2,2.93,2.55,1.59a4.09,4.09,0,0,1,5.8,0h0L9.92,3.15h0L2.77,10.3h0L1.2,8.74A4.12,4.12,0,0,1,1.2,2.93Z"/><path class="cls-2" d="M2.77,9.45a2,2,0,0,1-1.45-.6L1.2,8.74a4.12,4.12,0,0,1,0-5.81L2.55,1.59a4.09,4.09,0,0,1,5.81,0l.11.11a2.05,2.05,0,0,1,0,2.9L4.22,8.85A2.05,2.05,0,0,1,2.77,9.45Zm2.68-7A2,2,0,0,0,4,3L2.66,4.38h0a2,2,0,0,0,0,2.91l.11.11L7,3.15,6.9,3A2,2,0,0,0,5.45,2.44ZM1.93,3.66h0Z"/></g><g id="Rectangle_2275" data-name="Rectangle 2275"><path class="cls-1" d="M26.23,10.3,19.08,3.15h0l1.57-1.56a4.09,4.09,0,0,1,5.8,0h0L27.8,2.93a4.12,4.12,0,0,1,0,5.81L26.23,10.3Z"/><path class="cls-2" d="M26.23,9.45a2.05,2.05,0,0,1-1.45-.6L20.53,4.6a2.05,2.05,0,0,1,0-2.9l.12-.11a4.09,4.09,0,0,1,5.8,0L27.8,2.93a4.12,4.12,0,0,1,0,5.81l-.12.11A2,2,0,0,1,26.23,9.45Zm-2.68-7A2,2,0,0,0,22.1,3L22,3.15,26.23,7.4l.11-.11a2,2,0,0,0,0-2.91L25,3A2,2,0,0,0,23.55,2.44Z"/></g><path class="cls-2" d="M14.5,18.87a1,1,0,0,1-.72-.3l-3.09-3.08A1,1,0,0,1,12.15,14l3.08,3.09a1,1,0,0,1,0,1.45A1,1,0,0,1,14.5,18.87Z"/><path class="cls-2" d="M14.5,18.87a1,1,0,0,1-.64-.23,1,1,0,0,1-.16-1.44l4.11-5.13a1,1,0,0,1,1.44-.16,1,1,0,0,1,.16,1.44L15.3,18.48A1,1,0,0,1,14.5,18.87Z"/></g><rect class="cls-1" width="29" height="29"/></g></g></svg>